<?xml version="1.0" encoding="UTF-8" standalone="no"?>
<!-- Created with Inkscape (http://www.inkscape.org/) -->

<svg
   xmlns:dc="http://purl.org/dc/elements/1.1/"
   xmlns:cc="http://creativecommons.org/ns#"
   xmlns:rdf="http://www.w3.org/1999/02/22-rdf-syntax-ns#"
   xmlns:svg="http://www.w3.org/2000/svg"
   xmlns="http://www.w3.org/2000/svg"
   xmlns:sodipodi="http://sodipodi.sourceforge.net/DTD/sodipodi-0.dtd"
   xmlns:inkscape="http://www.inkscape.org/namespaces/inkscape"
   id="svg2"
   version="1.1"
   inkscape:version="0.91 r13725"
   xml:space="preserve"
   width="500"
   height="500"
   viewBox="0 0 500 500"
   sodipodi:docname="deviantart.svg"
   inkscape:export-filename="/home/chrono/WWW/inicio/images/deviantart.png"
   inkscape:export-xdpi="90"
   inkscape:export-ydpi="90"><metadata
     id="metadata8"><rdf:RDF><cc:Work
         rdf:about=""><dc:format>image/svg+xml</dc:format><dc:type
           rdf:resource="http://purl.org/dc/dcmitype/StillImage" /><dc:title></dc:title></cc:Work></rdf:RDF></metadata><defs
     id="defs6" /><sodipodi:namedview
     pagecolor="#ffffff"
     bordercolor="#666666"
     borderopacity="1"
     objecttolerance="10"
     gridtolerance="10"
     guidetolerance="10"
     inkscape:pageopacity="0"
     inkscape:pageshadow="2"
     inkscape:window-width="1440"
     inkscape:window-height="834"
     id="namedview4"
     showgrid="false"
     inkscape:zoom="0.91268753"
     inkscape:cx="500.71617"
     inkscape:cy="270.88822"
     inkscape:window-x="-2"
     inkscape:window-y="-3"
     inkscape:window-maximized="1"
     inkscape:current-layer="g10"
     inkscape:snap-bbox="true"
     inkscape:bbox-paths="true"
     inkscape:snap-page="true"
     inkscape:object-paths="true"
     inkscape:snap-smooth-nodes="true"
     inkscape:bbox-nodes="true" /><g
     id="g10"
     inkscape:groupmode="layer"
     inkscape:label="ink_ext_XXXXXX"
     transform="matrix(1.25,0,0,-1.25,0,500)"><g
       id="g3395"
       transform="matrix(0.493346,0,0,0.493346,-90.592634,-93.274463)"><path
         d="m 310.088,659.467 0,37.148 -37.149,0 -3.707,-3.739 -17.529,-33.405 -5.512,-3.719 -62.562,0 0,-51.015 34.394,0 3.063,-3.705 -37.457,-71.576 0,-37.149 37.148,0 3.708,3.738 17.53,33.406 5.511,3.718 62.562,0 0,51.016 -34.394,0 -3.06,3.73 37.454,71.552"
         style="fill:#47bb3a;fill-opacity:1;fill-rule:nonzero;stroke:none"
         id="path16"
         inkscape:connector-curvature="0" /><path
         d="m 382.669,527.754 10.554,20.144 4.869,-20.144 -15.423,0 z m 1.028,56.425 -48.076,-91.872 28.529,0 6.976,13.369 32.213,0.002 3.187,-13.371 28.527,0 -21.987,91.872 -29.369,0"
         style="fill:#222222;fill-opacity:1;fill-rule:nonzero;stroke:none"
         id="path18"
         inkscape:connector-curvature="0" /><path
         d="m 479.919,541.229 -12.189,0 0,18.576 12.189,0 c 7.427,0 10.248,-3.716 10.248,-9.362 0,-5.501 -2.821,-9.214 -10.248,-9.214 z m 38.19,9.667 c 0,21.097 -14.269,33.283 -34.329,33.283 l -43.533,0 0,-91.881 27.483,0 0,26.798 6.687,0 5.459,0.015 13.306,-26.813 28.53,0 -16.966,32.42 c 8.321,5.301 13.363,14.286 13.363,26.178"
         style="fill:#222222;fill-opacity:1;fill-rule:nonzero;stroke:none"
         id="path20"
         inkscape:connector-curvature="0" /><path
         d="m 522.174,584.179 0,-24.356 25.968,0 0,-67.525 15.648,0 11.814,22.601 0,44.924 23.553,0 12.735,24.356 -89.718,0"
         style="fill:#222222;fill-opacity:1;fill-rule:nonzero;stroke:none"
         id="path22"
         inkscape:connector-curvature="0" /><path
         d="m 676.141,604.747 27.457,0 0,91.868 -27.457,0 0,-91.868 z"
         style="fill:#222222;fill-opacity:1;fill-rule:nonzero;stroke:none"
         id="path24"
         inkscape:connector-curvature="0" /><path
         d="m 442.595,696.569 -12.338,-23.554 7.576,0 c 13.526,0 22.09,-8.645 22.09,-22.322 0,-13.518 -8.564,-22.166 -22.09,-22.166 l -8.562,0 0,42.606 -26.561,-50.707 0,-15.665 36.955,0 c 29.778,0 47.281,17.955 47.281,45.933 0,27.052 -16.361,44.726 -44.351,45.875"
         style="fill:#222222;fill-opacity:1;fill-rule:nonzero;stroke:none"
         id="path26"
         inkscape:connector-curvature="0" /><path
         d="m 494.208,604.747 70.125,0 0,24.352 -42.669,0 0,9.928 39.23,0 0,23.31 -39.23,0 0,9.925 42.669,0 0,24.353 -70.125,0 0,-91.868"
         style="fill:#222222;fill-opacity:1;fill-rule:nonzero;stroke:none"
         id="path28"
         inkscape:connector-curvature="0" /><path
         d="m 613.153,641.021 -13.309,55.594 -28.5,0 22,-91.865 29.318,0 48.12,91.865 -28.532,0 -29.097,-55.594"
         style="fill:#222222;fill-opacity:1;fill-rule:nonzero;stroke:none"
         id="path30"
         inkscape:connector-curvature="0" /><path
         d="m 904.701,696.622 0,-24.356 25.968,0 0,-67.525 15.648,0 11.815,22.601 0,44.924 23.553,0 12.734,24.356 -89.718,0"
         style="fill:#222222;fill-opacity:1;fill-rule:nonzero;stroke:none"
         id="path32"
         inkscape:connector-curvature="0" /><path
         d="m 755.99,640.189 10.537,20.126 4.868,-20.126 -15.405,0 z m 1.069,56.426 -48.089,-91.865 28.481,0 7.001,13.385 32.182,10e-4 3.195,-13.386 28.489,-0.003 -21.988,91.868 -29.271,0"
         style="fill:#222222;fill-opacity:1;fill-rule:nonzero;stroke:none"
         id="path34"
         inkscape:connector-curvature="0" /><path
         d="m 871.364,653.098 -30.752,43.517 -27.079,0 0,-91.868 27.449,0 0,46.656 34.045,-46.656 23.788,0 0,91.868 -27.451,0 0,-43.517"
         style="fill:#222222;fill-opacity:1;fill-rule:nonzero;stroke:none"
         id="path36"
         inkscape:connector-curvature="0" /></g></g></svg>