<?xml version="1.0" encoding="UTF-8" standalone="no"?>
<svg
   xmlns:dc="http://purl.org/dc/elements/1.1/"
   xmlns:cc="http://creativecommons.org/ns#"
   xmlns:rdf="http://www.w3.org/1999/02/22-rdf-syntax-ns#"
   xmlns:svg="http://www.w3.org/2000/svg"
   xmlns="http://www.w3.org/2000/svg"
   xmlns:sodipodi="http://sodipodi.sourceforge.net/DTD/sodipodi-0.dtd"
   xmlns:inkscape="http://www.inkscape.org/namespaces/inkscape"
   version="1.1"
   width="500"
   height="500"
   viewBox="0 0 500 500"
   overflow="visible"
   enable-background="new 0 0 266 100"
   xml:space="preserve"
   id="svg4707"
   inkscape:version="0.91 r13725"
   sodipodi:docname="Facebook.svg"
   style="overflow:visible"
   inkscape:export-filename="/home/chrono/WWW/inicio/images//facebook_color_jap.png"
   inkscape:export-xdpi="90"
   inkscape:export-ydpi="90"><metadata
     id="metadata4723"><rdf:RDF><cc:Work
         rdf:about=""><dc:format>image/svg+xml</dc:format><dc:type
           rdf:resource="http://purl.org/dc/dcmitype/StillImage" /><dc:title /></cc:Work></rdf:RDF></metadata><defs
     id="defs4721" /><sodipodi:namedview
     pagecolor="#ffffff"
     bordercolor="#666666"
     borderopacity="1"
     objecttolerance="10"
     gridtolerance="10"
     guidetolerance="10"
     inkscape:pageopacity="0"
     inkscape:pageshadow="2"
     inkscape:window-width="1440"
     inkscape:window-height="834"
     id="namedview4719"
     showgrid="false"
     inkscape:snap-bbox="true"
     inkscape:bbox-paths="true"
     inkscape:snap-page="true"
     inkscape:zoom="0.69046128"
     inkscape:cx="333.49819"
     inkscape:cy="217.47242"
     inkscape:window-x="-2"
     inkscape:window-y="-3"
     inkscape:window-maximized="1"
     inkscape:current-layer="layer1"
     inkscape:object-paths="true"
     inkscape:object-nodes="true"
     inkscape:bbox-nodes="true"
     inkscape:snap-bbox-edge-midpoints="true" /><g
     id="g4709"
     transform="translate(0,400)" /><g
     inkscape:groupmode="layer"
     id="layer1"
     inkscape:label="jap"
     style="display:inline"><g
       style="font-style:normal;font-variant:normal;font-weight:500;font-stretch:normal;font-size:100.25852203px;line-height:125%;font-family:'Johnston ITC Std';-inkscape-font-specification:'Johnston ITC Std Medium';text-align:center;letter-spacing:-27.82173729px;word-spacing:0px;writing-mode:lr-tb;text-anchor:middle;display:inline;overflow:visible;fill:#3b5998;fill-opacity:1;stroke:none;stroke-width:1px;stroke-linecap:butt;stroke-linejoin:miter;stroke-opacity:1"
       id="text4207"
       transform="matrix(0.99093417,0,0,0.99093417,2.2663749,-130.06068)"><path
         sodipodi:type="inkscape:offset"
         inkscape:radius="2.2874305"
         inkscape:original="M 361.61133 321.6543 L 357.40234 326.45312 C 362.23251 329.06403 366.11547 332.29346 369.05273 336.14453 L 374.33984 330.56445 C 370.8804 327.43137 366.63731 324.46102 361.61133 321.6543 z M 351.03711 327.91992 L 346.82812 332.71875 C 351.1361 335.32965 354.75805 338.85444 357.69531 343.29297 L 362.98242 337.71094 C 359.52298 333.99041 355.54092 330.72664 351.03711 327.91992 z M 200.87695 328.01953 C 199.76732 327.75844 199.08141 328.21377 198.82031 329.38867 C 199.34249 330.17195 198.59376 332.16298 196.57031 335.36133 C 194.54687 338.55968 191.05446 342.67324 186.09375 347.69922 C 181.13304 352.7252 174.47402 357.97805 166.11914 363.46094 C 157.76427 368.94383 148.75798 373.35079 139.09766 376.67969 L 139.09766 377.46289 C 141.25165 380.40015 142.91494 383.50005 144.08984 386.76367 C 157.4707 379.77952 166.44655 374.6562 171.01562 371.39258 C 175.64997 368.06368 178.84702 365.71448 180.60938 364.34375 L 180.60938 384.12109 C 180.60937 395.21741 180.41507 404.22369 180.02344 411.14258 L 190.30273 411.14258 C 190.04164 407.81368 189.91211 402.72275 189.91211 395.86914 L 189.91211 362.18945 L 190.89062 360.7207 C 191.54335 359.80688 191.34709 359.31722 190.30273 359.25195 L 187.07227 359.05664 C 189.61789 356.83738 192.78451 353.83463 196.57031 350.04883 C 200.35612 346.26303 204.40296 341.59504 208.71094 336.04688 L 211.35352 335.06836 C 212.26733 334.54618 212.20256 333.95937 211.1582 333.30664 L 200.87695 328.01953 z M 459.19531 330.36914 C 458.15095 330.10805 457.56413 330.46622 457.43359 331.44531 C 457.95577 332.29385 457.36896 335.06796 455.67188 339.76758 C 454.04006 344.40192 451.19924 349.59196 447.15234 355.33594 C 443.10545 361.01464 438.17839 365.77979 432.36914 369.63086 L 432.36914 370.11914 C 435.04531 372.53422 437.39452 375.01492 439.41797 377.56055 C 445.7494 371.62075 450.44977 366.46506 453.51758 362.0918 C 456.58538 357.65327 458.9346 353.83312 460.56641 350.63477 L 487.6875 350.63477 C 487.36113 353.96367 486.25032 358.17437 484.35742 363.26562 C 482.5298 368.35688 479.56139 373.51453 475.44922 378.73633 C 471.40233 383.95813 466.21229 388.72131 459.88086 393.0293 C 453.54943 397.272 446.04257 400.27475 437.36133 402.03711 L 437.36133 402.91797 C 439.12368 405.52886 440.52791 408.49922 441.57227 411.82812 C 452.14641 407.91178 460.66498 403.57153 467.12695 398.80664 C 473.6542 393.97648 479.20241 388.52542 483.77148 382.45508 C 488.34056 376.31947 491.66909 370.44546 493.75781 364.83203 C 495.91181 359.15332 497.18454 354.45491 497.57617 350.73438 L 499.14258 349.65625 C 500.2522 348.67716 500.28459 347.79695 499.24023 347.01367 L 492.7793 341.92188 C 492.45294 341.59551 492.15758 341.59551 491.89648 341.92188 L 491.60352 342.3125 L 464.38477 342.3125 C 465.29859 340.02797 466.18076 337.64637 467.0293 335.16602 L 468.39844 333.79492 C 469.24698 333.01166 469.14982 332.45722 468.10547 332.13086 L 459.19531 330.36914 z M 270.08398 338.69141 L 269.49609 339.17969 C 253.30852 340.22405 237.47934 340.61656 222.00977 340.35547 L 221.7168 341.23633 C 222.82643 343.84723 223.44563 346.78521 223.57617 350.04883 L 266.36328 347.59961 C 264.47038 353.27832 261.9573 358.46835 258.82422 363.16797 C 255.75641 367.86759 251.57808 372.66511 246.29102 377.56055 C 241.06922 382.39071 235.58578 386.37278 229.8418 389.50586 C 224.16309 392.63894 217.63751 395.41305 210.26172 397.82812 L 210.26172 398.9043 C 212.15462 401.58047 213.58927 404.7147 214.56836 408.30469 C 223.70651 403.93143 231.27814 399.78549 237.2832 395.86914 C 243.35354 391.88752 248.11868 388.16647 251.57812 384.70703 L 258.82422 377.36523 C 265.02511 382.13013 270.21318 386.63425 274.39062 390.87695 C 278.63333 395.05439 283.20222 400.27486 288.09766 406.54102 C 290.57801 403.27739 293.1902 400.57 295.93164 398.41602 L 295.93164 397.5332 L 282.41992 385.58984 C 278.11194 381.54295 272.04168 376.61393 264.20898 370.80469 C 265.5797 368.97705 267.3421 366.33444 269.49609 362.875 C 271.65009 359.35029 273.83543 354.51843 276.05469 348.38281 L 278.11133 347.01367 C 279.48205 346.09986 279.61354 345.1853 278.50391 344.27148 L 270.96484 338.69141 C 270.63848 338.36505 270.34508 338.36505 270.08398 338.69141 z M 62.564453 340.64844 L 62.464844 340.74609 L 0 340.74609 L 0 349.46094 L 58.353516 349.46094 C 58.092426 355.53128 56.983565 361.04711 55.025391 366.00781 C 53.067217 370.90325 50.032088 375.60166 45.919922 380.10547 C 41.807756 384.544 36.749209 388.10117 30.744141 390.77734 C 24.739073 393.38824 17.133107 395.21736 7.9296875 396.26172 L 7.9296875 397.33789 C 9.0393196 400.27515 9.7900055 403.44177 10.181641 406.83594 C 22.061231 404.02922 31.233337 400.8626 37.695312 397.33789 C 44.22256 393.7479 49.835538 389.2114 54.535156 383.72852 C 59.300048 378.24563 62.660967 372.82891 64.619141 367.47656 C 66.642587 362.12422 67.91532 356.28261 68.4375 349.95117 L 69.710938 348.87305 C 70.624753 347.89396 70.657136 346.91463 69.808594 345.93555 L 63.445312 340.64844 C 63.11895 340.32208 62.825543 340.32208 62.564453 340.64844 z M 352.31055 340.64844 L 352.21289 340.74609 L 289.74805 340.74609 L 289.74805 349.46094 L 348.10156 349.46094 C 347.84048 355.53128 346.72966 361.04711 344.77148 366.00781 C 342.81331 370.90325 339.77818 375.60166 335.66602 380.10547 C 331.55385 384.544 326.4953 388.10117 320.49023 390.77734 C 314.48516 393.38824 306.88115 395.21736 297.67773 396.26172 L 297.67773 397.33789 C 298.78736 400.27515 299.53805 403.44177 299.92969 406.83594 C 311.80927 404.02922 320.97943 400.8626 327.44141 397.33789 C 333.96866 393.7479 339.58359 389.2114 344.2832 383.72852 C 349.0481 378.24563 352.40901 372.82891 354.36719 367.47656 C 356.39063 362.12422 357.66337 356.28261 358.18555 349.95117 L 359.45898 348.87305 C 360.3728 347.89396 360.40519 346.91463 359.55664 345.93555 L 353.19141 340.64844 C 352.86504 340.32208 352.57163 340.32208 352.31055 340.64844 z M 416.71875 358.46875 C 415.80494 358.20766 415.28289 358.50107 415.15234 359.34961 C 415.54398 359.93706 415.51159 361.56797 415.05469 364.24414 C 414.66305 366.92031 412.99781 371.81694 410.06055 378.93164 C 407.18856 385.98107 403.07696 391.82268 397.72461 396.45703 C 392.43754 401.0261 386.75979 404.25749 380.68945 406.15039 L 380.68945 406.73828 C 383.30035 409.21863 385.19228 411.82887 386.36719 414.57031 C 394.3957 410.19706 400.988 405.23566 406.14453 399.6875 C 411.30106 394.07407 415.447 387.74279 418.58008 380.69336 C 421.71315 373.64393 423.63747 368.16049 424.35547 364.24414 L 425.72656 363.07031 C 426.57512 362.35231 426.54273 361.79788 425.62891 361.40625 L 416.71875 358.46875 z M 387.93359 358.85938 L 381.76562 362.77539 C 386.46524 367.80137 389.92527 372.9914 392.14453 378.34375 C 395.0818 376.51612 397.49577 374.85088 399.38867 373.34961 C 395.92923 368.12782 392.11103 363.2979 387.93359 358.85938 z M 85.164062 362.18945 L 85.164062 368.74805 L 104.45312 368.74805 L 104.45312 397.5332 L 77.039062 397.5332 L 77.039062 404.09375 L 139.60156 404.09375 L 139.60156 397.5332 L 112.77539 397.5332 L 112.77539 368.74805 L 130.39844 368.74805 L 130.39844 362.18945 L 85.164062 362.18945 z M 371.48438 364.34375 L 365.51367 368.8457 C 369.95221 373.74114 373.41027 378.93118 375.89062 384.41406 L 383.13672 379.61719 C 379.54673 374.1343 375.66181 369.04337 371.48438 364.34375 z "
         style="font-style:normal;font-variant:normal;font-weight:bold;font-stretch:normal;font-size:100.25852203px;line-height:125%;font-family:Arial;-inkscape-font-specification:'Arial Bold';text-align:center;letter-spacing:-27.82173729px;writing-mode:lr-tb;text-anchor:middle;fill:#3b5998"
         id="path4227"
         d="m 361.63281,319.36719 a 2.2876593,2.2876593 0 0 0 -1.74023,0.77929 l -4.20899,4.79883 a 2.2876593,2.2876593 0 0 0 0.63086,3.51953 c 4.58718,2.47957 8.19823,5.49797 10.91993,9.06641 a 2.2876593,2.2876593 0 0 0 3.47851,0.1875 L 376,332.13867 a 2.2876593,2.2876593 0 0 0 -0.125,-3.26953 c -3.61604,-3.27491 -8.00113,-6.33842 -13.14844,-9.21289 a 2.2876593,2.2876593 0 0 0 -1.09375,-0.28906 z m -10.69336,6.26758 a 2.2876593,2.2876593 0 0 0 -1.62109,0.77734 l -4.20898,4.79883 a 2.2876593,2.2876593 0 0 0 0.5332,3.46484 c 1.77256,1.07428 3.36878,2.37665 4.89258,3.7832 l -60.78711,0 a 2.2876593,2.2876593 0 0 0 -2.28711,2.28711 l 0,8.71485 a 2.2876593,2.2876593 0 0 0 2.28711,2.28711 l 55.78711,0 c -0.415,4.86937 -1.30179,9.39487 -2.89063,13.41992 -1.84244,4.60242 -4.71283,9.0622 -8.66406,13.39062 -0.001,0.001 -0.003,0.002 -0.004,0.004 -3.88714,4.19222 -8.66763,7.5601 -14.41211,10.12109 -5.71417,2.48248 -13.10438,4.27886 -22.14453,5.30469 a 2.2876593,2.2876593 0 0 0 -1.33008,0.63086 l -12.15429,-10.74414 0.0508,0.0469 c -4.05233,-3.80674 -9.72603,-8.39349 -16.69336,-13.625 1.23057,-1.74795 2.47594,-3.53304 4.14453,-6.2129 a 2.2876593,2.2876593 0 0 0 0.01,-0.0156 c 2.18004,-3.56733 4.31174,-8.32586 6.46289,-14.17188 l 1.46875,-0.97851 a 2.2876593,2.2876593 0 0 0 0.002,-0.002 c 0.95032,-0.63355 1.9118,-1.48883 2.12109,-2.94922 0.2093,-1.46039 -0.66486,-2.73779 -1.54297,-3.46094 a 2.2876593,2.2876593 0 0 0 -0.0937,-0.0723 l -7.53906,-5.58007 0.25586,0.2207 c -0.40553,-0.40553 -1.08759,-0.91406 -2.08203,-0.91406 -0.76695,0 -1.36086,0.37405 -1.80273,0.76562 -15.89907,1.0089 -31.45391,1.39903 -46.64844,1.14258 a 2.2876593,2.2876593 0 0 0 -2.20899,1.56445 l -0.29296,0.88086 a 2.2876593,2.2876593 0 0 0 0.0645,1.61719 c 0.98783,2.32432 1.5585,4.98 1.67969,8.00976 a 2.2876593,2.2876593 0 0 0 2.41601,2.19141 l 39.18359,-2.24219 c -1.65112,4.21655 -3.56858,8.20835 -5.96874,11.8086 a 2.2876593,2.2876593 0 0 0 -0.0137,0.0195 c -2.93764,4.50021 -6.99063,9.16739 -12.17187,13.96484 -5.09523,4.7128 -10.42504,8.57968 -15.99024,11.61524 a 2.2876593,2.2876593 0 0 0 -0.01,0.006 c -5.52978,3.05091 -11.92288,5.77236 -19.18555,8.15039 a 2.2876593,2.2876593 0 0 0 -1.57617,2.17382 l 0,1.07618 a 2.2876593,2.2876593 0 0 0 0.41992,1.32031 c 1.72133,2.43361 3.04803,5.31283 3.9668,8.68164 a 2.2876593,2.2876593 0 0 0 3.19531,1.46094 c 9.20213,-4.40388 16.8533,-8.58859 22.97656,-12.58203 a 2.2876593,2.2876593 0 0 0 0.004,-0.004 c 6.15781,-4.03899 11.03604,-7.83487 14.6582,-11.45703 a 2.2876593,2.2876593 0 0 0 0.0117,-0.01 l 5.78711,-5.86328 c 5.39619,4.23283 10.0628,8.27058 13.76563,12.03125 a 2.2876593,2.2876593 0 0 0 0.0254,0.0254 c 4.14883,4.08501 8.65995,9.23365 13.50976,15.44141 a 2.2876593,2.2876593 0 0 0 3.62305,-0.0234 c 2.09075,-2.751 4.2722,-4.98623 6.50586,-6.87305 0.53919,1.92327 0.98814,3.91095 1.23437,6.04493 a 2.2876593,2.2876593 0 0 0 2.79688,1.96484 c 11.99791,-2.83468 21.32701,-6.03225 28.08203,-9.7168 a 2.2876593,2.2876593 0 0 0 0.006,-0.004 c 6.75028,-3.71266 12.58904,-8.42542 17.4668,-14.11328 l 0.004,-0.006 c 4.89824,-5.63738 8.41691,-11.27611 10.49414,-16.94727 1.99164,-5.27087 3.22138,-11.00906 3.8086,-17.13086 l 0.62109,-0.52539 a 2.2876593,2.2876593 0 0 0 0.19336,-0.18555 c 0.70728,-0.7578 1.28522,-1.7785 1.32422,-2.95312 0.039,-1.17462 -0.489,-2.2573 -1.16992,-3.04297 a 2.2876593,2.2876593 0 0 0 -0.26758,-0.26172 l -0.56446,-0.46875 4.18946,-4.42383 a 2.2876593,2.2876593 0 0 0 0.0156,-3.1289 c -3.60124,-3.87304 -7.7464,-7.26817 -12.41211,-10.17578 a 2.2876593,2.2876593 0 0 0 -1.30664,-0.34375 z m -151.09179,0.0625 c -0.54304,0.063 -1.09158,0.23687 -1.58399,0.56445 -0.98482,0.65515 -1.46678,1.69041 -1.67578,2.63086 a 2.2876593,2.2876593 0 0 0 0.10156,1.32617 c -0.0311,-0.0959 -0.01,-0.006 -0.17968,0.44531 -0.27814,0.73866 -0.90783,1.94894 -1.87305,3.47461 -1.86142,2.94226 -5.27246,6.98925 -10.17188,11.95313 -4.80153,4.8647 -11.34085,10.03594 -19.60156,15.45703 -8.19451,5.37765 -17.02528,9.69977 -26.51172,12.96875 a 2.2876593,2.2876593 0 0 0 -1.54101,2.16211 l 0,0.7832 a 2.2876593,2.2876593 0 0 0 0.44336,1.35352 c 2.0322,2.77119 3.58538,5.67205 4.68359,8.72265 a 2.2876593,2.2876593 0 0 0 3.21094,1.25196 c 13.41566,-7.00232 22.39657,-12.10805 27.19726,-15.53711 a 2.2876593,2.2876593 0 0 0 0.004,-0.004 c 2.86983,-2.06143 4.19062,-3.06809 5.97266,-4.38867 l 0,15.25976 c -1e-5,11.06962 -0.19432,20.04289 -0.58204,26.89258 a 2.2876593,2.2876593 0 0 0 2.28321,2.41602 l 10.27929,0 a 2.2876593,2.2876593 0 0 0 2.28125,-2.4668 c -0.25148,-3.20646 -0.38476,-8.26896 -0.38476,-15.09375 l 0,-32.98828 0.55273,-0.83008 c 0.50171,-0.70239 1.21158,-1.71867 0.60547,-3.23242 -0.26466,-0.66098 -0.82094,-1.06063 -1.30664,-1.33203 1.93854,-1.80333 3.70456,-3.38816 6.13672,-5.82031 3.74254,-3.74254 7.71038,-8.33173 11.89844,-13.68946 l 2.0625,-0.76367 a 2.2876593,2.2876593 0 0 0 0.33984,-0.1582 c 0.3988,-0.22789 0.80649,-0.50729 1.1836,-1 0.3771,-0.49272 0.67667,-1.30392 0.59179,-2.07031 -0.16975,-1.5328 -1.12717,-2.13881 -1.89258,-2.61719 a 2.2876593,2.2876593 0 0 0 -0.16601,-0.0957 l -10.28125,-5.2871 a 2.2876593,2.2876593 0 0 0 -0.52344,-0.19141 c -0.47284,-0.11126 -1.0097,-0.15867 -1.55273,-0.0957 z m 258.47656,2.30859 c -0.50788,0.034 -1.03524,0.17309 -1.54492,0.48437 -1.01936,0.62256 -1.4935,1.75395 -1.61328,2.65235 a 2.2876593,2.2876593 0 0 0 0.32031,1.50195 c -0.52249,-0.84904 -0.0845,-0.16143 -0.33985,1.04492 -0.25532,1.20635 -0.79864,3.00699 -1.62695,5.30078 a 2.2876593,2.2876593 0 0 0 -0.006,0.0176 c -1.53236,4.35189 -4.26494,9.37846 -8.22461,15 -3.88863,5.45663 -8.60217,10.01676 -14.18359,13.7168 a 2.2876593,2.2876593 0 0 0 -1.02344,1.90625 l 0,0.48828 a 2.2876593,2.2876593 0 0 0 0.75391,1.69727 c 2.59207,2.33919 4.85377,4.73078 6.79101,7.16797 a 2.2876593,2.2876593 0 0 0 3.35547,0.24414 c 6.40113,-6.0052 11.19495,-11.24168 14.4082,-15.82227 a 2.2876593,2.2876593 0 0 0 0.008,-0.0137 c 2.77544,-4.01555 4.78521,-7.38596 6.4375,-10.4707 l 23.09375,0 c -0.50067,2.67321 -1.30464,5.74865 -2.7168,9.54687 a 2.2876593,2.2876593 0 0 0 -0.008,0.0234 c -1.72749,4.81232 -4.56248,9.76114 -8.55274,14.82812 a 2.2876593,2.2876593 0 0 0 -0.0117,0.0156 c -3.87762,5.00339 -8.87918,9.60451 -15.03906,13.79687 -6.05027,4.05307 -13.26125,6.94993 -21.69531,8.66211 a 2.2876593,2.2876593 0 0 0 -1.83203,2.24219 l 0,0.88086 a 2.2876593,2.2876593 0 0 0 0.39062,1.2793 c 1.62749,2.41109 2.94039,5.17546 3.92578,8.3164 a 2.2876593,2.2876593 0 0 0 2.97657,1.45899 c 10.71509,-3.96855 19.41638,-8.38322 26.11719,-13.32422 a 2.2876593,2.2876593 0 0 0 0.004,-0.004 c 6.69051,-4.95097 12.40288,-10.55894 17.11133,-16.81445 a 2.2876593,2.2876593 0 0 0 0.006,-0.01 c 4.66543,-6.26499 8.10694,-12.31285 10.29101,-18.17773 l 0.002,-0.004 c 2.0107,-5.30154 3.20391,-9.72142 3.73242,-13.54101 l 0.80859,-0.55664 a 2.2876593,2.2876593 0 0 0 0.2168,-0.16993 c 0.80153,-0.70724 1.57842,-1.65764 1.62891,-3.02539 0.0505,-1.36774 -0.81159,-2.51689 -1.67188,-3.16211 l -6.41797,-5.05859 0.20117,0.17969 c -0.40714,-0.40716 -1.09185,-0.91407 -2.08398,-0.91407 -0.99213,0 -1.80974,0.60984 -2.20312,1.10157 l 0.3496,-0.4668 -22.79101,0 c 0.44564,-1.19132 0.90135,-2.35487 1.33008,-3.59375 l 1.01953,-1.01953 -0.0684,0.0645 c 0.65391,-0.6036 1.54226,-1.50892 1.26562,-3.08203 -0.13831,-0.78655 -0.64497,-1.4318 -1.10546,-1.78711 -0.4605,-0.3553 -0.89482,-0.52658 -1.32227,-0.66015 a 2.2876593,2.2876593 0 0 0 -0.23828,-0.0605 l -8.91016,-1.76172 0.11133,0.0254 c -0.42937,-0.10734 -0.9179,-0.17855 -1.42578,-0.14453 z M 62.980469,338.11719 c -0.619881,-0.0766 -1.726857,0.51475 -2.017578,0.89843 l 0.568359,-0.55664 -61.53125,0 a 2.2876593,2.2876593 0 0 0 -2.2871094,2.28711 l 0,8.71485 A 2.2876593,2.2876593 0 0 0 0,351.74805 l 55.787109,0 c -0.41464,4.86964 -1.300005,9.3953 -2.888671,13.41992 -1.842448,4.60242 -4.712824,9.0622 -8.664063,13.39062 -0.0013,0.001 -0.0026,0.002 -0.0039,0.004 -3.88714,4.19222 -8.667635,7.5601 -14.41211,10.12109 -5.714004,2.48241 -13.106304,4.27885 -22.146484,5.30469 a 2.2876593,2.2876593 0 0 0 -2.0292969,2.27344 l 0,1.07617 a 2.2876593,2.2876593 0 0 0 0.1464844,0.80859 c 1.0380867,2.74788 1.7490405,5.72672 2.1210937,8.95118 a 2.2876593,2.2876593 0 0 0 2.7968748,1.96484 c 11.997864,-2.83466 21.328803,-6.03216 28.083985,-9.7168 a 2.2876593,2.2876593 0 0 0 0.0059,-0.004 c 6.750451,-3.71275 12.587291,-8.42566 17.464844,-14.11328 l 0.0039,-0.006 c 4.898225,-5.63738 8.416912,-11.27611 10.494141,-16.94727 1.991641,-5.27087 3.221377,-11.00906 3.808593,-17.13086 l 0.621094,-0.52539 a 2.2876593,2.2876593 0 0 0 0.193359,-0.18555 c 0.707283,-0.7578 1.285222,-1.77851 1.324219,-2.95312 0.039,-1.17462 -0.489004,-2.2573 -1.169922,-3.04297 a 2.2876593,2.2876593 0 0 0 -0.267578,-0.26172 l -6.363281,-5.28711 0.15625,0.14258 c -0.405537,-0.40553 -1.087597,-0.91406 -2.082031,-0.91406 z m 287.966801,0.66015 c 0.0162,0.0155 0.0365,0.0255 0.0527,0.041 -0.16473,0.13689 -0.36986,0.26701 -0.47656,0.40039 l 0.16992,-0.1875 0.25391,-0.25391 z m 65.07031,17.31055 c -0.48213,0.0145 -0.99078,0.12799 -1.4961,0.41211 -1.01063,0.56825 -1.50192,1.66392 -1.63086,2.50195 a 2.2876593,2.2876593 0 0 0 0.35938,1.61719 c -0.36228,-0.5434 -0.10274,-0.27761 -0.11523,0.34961 -0.0125,0.62722 -0.117,1.61969 -0.33399,2.89063 a 2.2876593,2.2876593 0 0 0 -0.01,0.0527 c -0.31501,2.15251 -1.93335,7.09209 -4.84571,14.14648 a 2.2876593,2.2876593 0 0 0 -0.004,0.01 c -2.75078,6.7519 -6.64336,12.26899 -11.71485,16.66016 -5.07715,4.3872 -10.46853,7.4452 -16.21875,9.23828 a 2.2876593,2.2876593 0 0 0 -1.60547,2.18359 l 0,0.58789 a 2.2876593,2.2876593 0 0 0 0.71094,1.6582 c 2.42997,2.30847 4.12058,4.66678 5.15234,7.07422 a 2.2876593,2.2876593 0 0 0 3.19532,1.10742 c 8.2048,-4.46927 15.00395,-9.57182 20.35937,-15.33398 a 2.2876593,2.2876593 0 0 0 0.008,-0.01 c 5.32299,-5.79464 9.611,-12.34202 12.8418,-19.61133 2.98083,-6.70688 4.81836,-11.9289 5.6875,-16.08008 l 0.85742,-0.73438 -0.0117,0.008 c 0.65687,-0.55581 1.50759,-1.33838 1.41993,-2.83399 -0.0438,-0.7478 -0.44161,-1.45338 -0.85743,-1.86914 -0.41581,-0.41576 -0.83275,-0.63564 -1.23632,-0.80859 a 2.2876593,2.2876593 0 0 0 -0.1836,-0.0703 l -8.91015,-2.9375 a 2.2876593,2.2876593 0 0 0 -0.0879,-0.0274 c -0.39259,-0.11217 -0.84795,-0.19612 -1.33008,-0.18164 z m -28.04883,0.48438 a 2.2876593,2.2876593 0 0 0 -1.26172,0.35546 l -6.16797,3.91602 a 2.2876593,2.2876593 0 0 0 -0.44336,3.49414 c 4.54561,4.86128 7.83809,9.82423 9.93555,14.88281 a 2.2876593,2.2876593 0 0 0 3.32227,1.06446 c 2.98913,-1.85991 5.46753,-3.5647 7.45703,-5.14258 a 2.2876593,2.2876593 0 0 0 0.48437,-3.05664 c -3.52875,-5.32642 -7.42702,-10.25987 -11.69531,-14.79492 a 2.2876593,2.2876593 0 0 0 -1.63086,-0.71875 z m -302.804688,3.33007 a 2.2876593,2.2876593 0 0 0 -2.287109,2.28711 l 0,6.5586 a 2.2876593,2.2876593 0 0 0 2.287109,2.28711 l 17.001958,0 0,24.21093 -25.126958,0 a 2.2876593,2.2876593 0 0 0 -2.287109,2.28711 l 0,6.56055 a 2.2876593,2.2876593 0 0 0 2.287109,2.28711 l 62.562498,0 a 2.2876593,2.2876593 0 0 0 2.28711,-2.28711 l 0,-6.56055 a 2.2876593,2.2876593 0 0 0 -2.28711,-2.28711 l -24.53906,0 0,-24.21093 15.33594,0 a 2.2876593,2.2876593 0 0 0 2.28711,-2.28711 l 0,-6.5586 a 2.2876593,2.2876593 0 0 0 -2.28711,-2.28711 l -45.234378,0 z m 286.421878,2.15625 a 2.2876593,2.2876593 0 0 0 -1.47852,0.45899 l -5.9707,4.50195 a 2.2876593,2.2876593 0 0 0 -0.31836,3.36328 c 4.29527,4.73743 7.61358,9.72527 9.98828,14.97461 a 2.2876593,2.2876593 0 0 0 3.3457,0.96485 l 7.2461,-4.79688 a 2.2876593,2.2876593 0 0 0 0.65234,-3.16211 c -3.64881,-5.57272 -7.60288,-10.75269 -11.85742,-15.53906 a 2.2876593,2.2876593 0 0 0 -1.60742,-0.76563 z" /></g><text
       xml:space="preserve"
       style="overflow:visible;display:inline;font-style:normal;font-variant:normal;font-weight:500;font-stretch:normal;font-size:24px;line-height:125%;font-family:'Johnston ITC Std';-inkscape-font-specification:'Johnston ITC Std Medium';text-align:center;letter-spacing:-0.04px;word-spacing:0px;writing-mode:lr-tb;text-anchor:middle;fill:#000000;fill-opacity:1;stroke:none;stroke-width:1px;stroke-linecap:butt;stroke-linejoin:miter;stroke-opacity:1"
       x="-142.29617"
       y="392.4632"
       id="text3364"
       sodipodi:linespacing="125%"><tspan
         sodipodi:role="line"
         id="tspan3366"
         x="-144.89117"
         y="392.4632"
         style="font-style:normal;font-variant:normal;font-weight:bold;font-stretch:normal;font-size:24px;line-height:125%;font-family:Arial;-inkscape-font-specification:'Arial Bold';text-align:center;letter-spacing:-5.19000006px;writing-mode:lr-tb;text-anchor:middle">フェイスブック</tspan></text>
<text
       sodipodi:linespacing="125%"
       id="text4203"
       y="454.16568"
       x="-153.81738"
       style="font-style:normal;font-variant:normal;font-weight:500;font-stretch:normal;font-size:24px;line-height:125%;font-family:'Johnston ITC Std';-inkscape-font-specification:'Johnston ITC Std Medium';text-align:center;letter-spacing:-6.66px;word-spacing:0px;writing-mode:lr-tb;text-anchor:middle;display:inline;overflow:visible;fill:#000000;fill-opacity:1;stroke:none;stroke-width:1px;stroke-linecap:butt;stroke-linejoin:miter;stroke-opacity:1;"
       xml:space="preserve"><tspan
         style="font-style:normal;font-variant:normal;font-weight:bold;font-stretch:normal;font-size:24px;line-height:125%;font-family:Arial;-inkscape-font-specification:'Arial Bold';text-align:center;letter-spacing:-6.66px;writing-mode:lr-tb;text-anchor:middle;"
         y="454.16568"
         x="-156.41238"
         id="tspan4205"
         sodipodi:role="line">フェイスブック</tspan></text>
</g><g
     inkscape:groupmode="layer"
     id="layer2"
     inkscape:label="eng"
     style="display:none"
     sodipodi:insensitive="true"><g
       id="g4713"
       style="overflow:visible;fill:#3b5998"
       transform="matrix(2.3990254,0,0,2.3990254,-69.068034,114.29154)"><path
         d="m 140.02051,49.59668 c -1.78418,0 -3.07031,0.584961 -4.37403,1.181152 l 0,13.48584 c 1.24903,0.11914 1.96485,0.11914 3.15039,0.11914 4.28223,0 4.86915,-1.960937 4.86915,-4.699218 l 0,-6.441407 c 0,-2.021484 -0.6709,-3.645507 -3.64551,-3.645507 z m -28.43799,-0.73584 c -2.9707,0 -3.64941,1.631347 -3.64941,3.650879 l 0,1.134765 7.29443,0 0,-1.134765 c 0,-2.019532 -0.67774,-3.650879 -3.64502,-3.650879 z M 56.492676,62.898437 c 0,1.597657 0.753906,2.427735 2.417969,2.427735 1.785156,0 2.841796,-0.582031 4.144531,-1.179688 l 0,-3.199218 -3.90332,0 c -1.847169,0 -2.65918,0.34375 -2.65918,1.951171 z M 167.68359,49.59668 c -2.97558,0 -4.00683,1.624023 -4.00683,3.645507 l 0,7.378907 c 0,2.027343 1.03125,3.65625 4.00683,3.65625 2.96778,0 4.00684,-1.628907 4.00684,-3.65625 l 0,-7.378907 c 0,-2.021484 -1.03906,-3.645507 -4.00684,-3.645507 z m -125.77441,21.575195 -8.747559,0 0,-21.174316 -4.371582,0 0,-7.296387 4.371582,0 0,-4.38086 c 0,-5.952636 2.467285,-9.492187 9.479004,-9.492187 l 5.837891,0 0,7.297852 -3.648926,0 c -2.729981,0 -2.909668,1.019531 -2.909668,2.922851 l -0.01074,3.652344 6.610351,0 -0.773437,7.296387 -5.836916,0 0,21.174316 z m 29.896972,0.05469 -7.290527,0 -0.315918,-1.84375 c -3.329102,1.84375 -6.300293,2.142579 -8.260254,2.142579 -5.34668,0 -8.193359,-3.572266 -8.193359,-8.511719 0,-5.828125 3.320801,-7.908203 9.262207,-7.908203 l 6.046875,0 0,-1.259766 c 0,-2.974121 -0.340821,-3.848144 -4.915528,-3.848144 l -7.47998,0 0.731445,-7.296387 8.17627,0 c 10.038086,0 12.238769,3.170898 12.238769,11.203125 l 0,17.322262 z m 24.792969,-20.69385 c -4.537109,-0.777344 -5.839844,-0.948242 -8.022949,-0.948242 -3.921387,0 -5.106445,0.865234 -5.106445,4.194824 l 0,6.298828 c 0,3.330078 1.185058,4.199219 5.106445,4.199219 2.183105,0 3.48584,-0.173828 8.022949,-0.955078 l 0,7.117187 c -3.974121,0.890625 -6.562988,1.125 -8.751465,1.125 -9.392089,0 -13.125488,-4.939453 -13.125488,-12.074219 l 0,-5.111328 c 0,-7.141113 3.733398,-12.088867 13.125488,-12.088867 2.188477,0 4.777344,0.235352 8.751465,1.129883 l 0,7.112793 z m 27.375979,8.957519 -16.04199,0 0,0.587891 c 0,3.330078 1.18603,4.199219 5.10644,4.199219 3.52441,0 5.67529,-0.173828 10.2041,-0.955078 l 0,7.117187 c -4.36767,0.890625 -6.64355,1.125 -10.9292,1.125 -9.39257,0 -13.127926,-4.939453 -13.127926,-12.074219 l 0,-5.84375 c 0,-6.242675 2.771486,-11.356445 12.395996,-11.356445 9.62451,0 12.39258,5.054199 12.39258,11.356445 l 0,5.84375 z M 152.41211,59.625 c 0,6.896484 -1.9707,11.925781 -13.91113,11.925781 -4.31153,0 -6.84082,-0.378906 -11.59961,-1.111328 l 0,-39.42041 8.74511,-1.459473 0,13.789063 c 1.88965,-0.702149 4.33594,-1.058594 6.5625,-1.058594 8.7461,0 10.20313,3.920898 10.20313,10.22168 l 0,7.113281 z m 28.0332,0.150391 c 0,5.949218 -2.45605,11.71875 -12.73242,11.71875 -10.28125,0 -12.7832,-5.769532 -12.7832,-11.71875 l 0,-5.744141 c 0,-5.952148 2.50195,-11.722656 12.7832,-11.722656 10.27637,0 12.73242,5.770508 12.73242,11.722656 l 0,5.744141 z m 28.01367,0 c 0,5.949218 -2.45898,11.71875 -12.73339,11.71875 -10.28125,0 -12.78321,-5.769532 -12.78321,-11.71875 l 0,-5.744141 c 0,-5.952148 2.50196,-11.722656 12.78321,-11.722656 10.27441,0 12.73339,5.770508 12.73339,11.722656 l 0,5.744141 z m 28.74903,11.396484 -9.47949,0 -8.01661,-13.382813 0,13.382813 -8.74804,0 0,-40.152832 8.74804,-1.459473 0,25.848633 8.01661,-12.707031 9.47949,0 -8.75196,13.867187 8.75196,14.603516 z M 195.69629,49.59668 c -2.9707,0 -4.00195,1.624023 -4.00195,3.645507 l 0,7.378907 c 0,2.027343 1.03125,3.65625 4.00195,3.65625 2.9668,0 4.0166,-1.628907 4.0166,-3.65625 l 0,-7.378907 c 0,-2.021484 -1.0498,-3.645507 -4.0166,-3.645507 z"
         id="path4715"
         style="fill:#3b5998"
         inkscape:connector-curvature="0" /></g></g></svg>