<?xml version="1.0" encoding="UTF-8" standalone="no"?>
<!-- Created with Inkscape (http://www.inkscape.org/) -->

<svg
   xmlns:dc="http://purl.org/dc/elements/1.1/"
   xmlns:cc="http://creativecommons.org/ns#"
   xmlns:rdf="http://www.w3.org/1999/02/22-rdf-syntax-ns#"
   xmlns:svg="http://www.w3.org/2000/svg"
   xmlns="http://www.w3.org/2000/svg"
   xmlns:sodipodi="http://sodipodi.sourceforge.net/DTD/sodipodi-0.dtd"
   xmlns:inkscape="http://www.inkscape.org/namespaces/inkscape"
   id="svg2"
   version="1.1"
   inkscape:version="0.91 r13725"
   width="500"
   height="500"
   xml:space="preserve"
   sodipodi:docname="heroku.svg"
   inkscape:export-filename="/home/chrono/WWW/inicio/images/heroku.png"
   inkscape:export-xdpi="90"
   inkscape:export-ydpi="90"><metadata
     id="metadata8"><rdf:RDF><cc:Work
         rdf:about=""><dc:format>image/svg+xml</dc:format><dc:type
           rdf:resource="http://purl.org/dc/dcmitype/StillImage" /><dc:title /></cc:Work></rdf:RDF></metadata><defs
     id="defs6"><clipPath
       clipPathUnits="userSpaceOnUse"
       id="clipPath68"><path
         d="m 270,53.32 216,0 0,69.3 -216,0 0,-69.3 z"
         id="path70"
         inkscape:connector-curvature="0" /></clipPath><clipPath
       clipPathUnits="userSpaceOnUse"
       id="clipPath134"><path
         d="m 270,166.493 216,0 0,69.303 -216,0 0,-69.303 z"
         id="path136"
         inkscape:connector-curvature="0" /></clipPath><clipPath
       clipPathUnits="userSpaceOnUse"
       id="clipPath200"><path
         d="m 18,166.493 216,0 0,69.302 -216,0 0,-69.302 z"
         id="path202"
         inkscape:connector-curvature="0" /></clipPath><clipPath
       clipPathUnits="userSpaceOnUse"
       id="clipPath242"><path
         d="m 18,53.32 216,0 0,69.3 -216,0 0,-69.3 z"
         id="path244"
         inkscape:connector-curvature="0" /></clipPath></defs><sodipodi:namedview
     pagecolor="#ffffff"
     bordercolor="#666666"
     borderopacity="1"
     objecttolerance="10"
     gridtolerance="10"
     guidetolerance="10"
     inkscape:pageopacity="0"
     inkscape:pageshadow="2"
     inkscape:window-width="1440"
     inkscape:window-height="834"
     id="namedview4"
     showgrid="false"
     inkscape:snap-bbox="true"
     inkscape:bbox-paths="true"
     inkscape:snap-page="true"
     inkscape:zoom="0.75429047"
     inkscape:cx="-16.827032"
     inkscape:cy="330.96013"
     inkscape:window-x="-2"
     inkscape:window-y="-3"
     inkscape:window-maximized="1"
     inkscape:current-layer="g10" /><g
     id="g10"
     inkscape:groupmode="layer"
     inkscape:label="heroku_guidelines"
     transform="matrix(1.25,0,0,-1.25,0,500)"><g
       id="g4167"
       style="fill:#58488a"><path
         d="m 62.744568,219.60839 -10.456471,0 c 4.108616,5.3931 6.689045,11.06718 7.841636,16.99356 l 10.459338,0 c -0.708184,-5.94072 -3.116584,-11.63487 -7.844503,-16.99356 m -2.614835,-56.21034 0,31.22893 C 60.078125,197.06978 58.902596,200 53.595514,200 42.961281,200 31.033966,194.65278 30.916413,194.59831 l -7.388627,-3.34596 0,45.3496 10.459337,0 0,-29.6864 c 5.221068,1.69735 12.517947,3.54379 19.608391,3.54379 6.462541,0 10.333184,-2.54315 12.440534,-4.67344 4.49568,-4.55016 4.558757,-10.34465 4.550156,-11.0127 l 0.0029,-31.37515 -10.459338,0 z m -36.601947,0 0,20.91581 11.766755,-10.45647 -11.766755,-10.45934 z m 61.17623,88.89004 -75.2940424,0 c -5.1981302,0 -9.4099632794,-4.2147 -9.4099632794,-9.41283 l 0,-85.75052 c 0,-5.19813 4.2118330794,-9.41283 9.4099632794,-9.41283 l 75.2940424,0 c 5.19813,0 9.41283,4.2147 9.41283,9.41283 l 0,85.75052 c 0,5.19813 -4.2147,9.41283 -9.41283,9.41283"
         style="fill:#58488a;fill-opacity:1;fill-rule:nonzero;stroke:none"
         id="path248"
         inkscape:connector-curvature="0" /><path
         d="m 146.40895,215.62077 c -5.92352,0 -13.34082,-1.61994 -18.30958,-3.50938 l 0,24.49113 -10.4536,0 0,-73.20389 10.4536,0 0,39.70993 c 5.14366,2.33959 12.29718,3.50651 16.83013,3.50651 2.26218,0 4.17743,-1.16692 4.17743,-3.87064 l 0,-39.3458 10.37046,0 0,37.90936 c 0,8.28031 -3.57247,14.31278 -13.06844,14.31278"
         style="fill:#58488a;fill-opacity:1;fill-rule:nonzero;stroke:none"
         id="path90-3"
         inkscape:connector-curvature="0" /><path
         d="m 177.7775,194.77177 c 0.17489,5.49344 0.89741,10.80626 0.89741,10.80626 0,0 5.27841,1.10385 12.25417,1.10385 6.97863,0 9.07164,-4.43547 9.07164,-11.91011 l -22.22322,0 z m 13.15158,20.9158 c -8.79639,0 -15.76642,-1.08091 -20.99322,-3.15099 -2.00413,-7.20513 -2.61483,-14.48767 -2.61483,-23.12924 0,-15.76068 2.70085,-26.00785 20.12734,-26.00785 8.10255,0 14.89768,2.51735 20.47427,5.13218 l -1.74322,8.10255 c -5.2268,-2.07008 -12.0248,-4.14302 -18.0372,-4.14302 -7.66387,0 -10.10381,1.56259 -10.45074,14.43606 l 31.4583,0 0,5.49345 c 0,14.31564 -4.72505,23.26686 -18.2207,23.26686"
         style="fill:#58488a;fill-opacity:1;fill-rule:nonzero;stroke:none"
         id="path94-4"
         inkscape:connector-curvature="0" /><path
         d="m 389.5464,215.687 -0.003,-39.21678 c 0,0 -7.35422,-3.91939 -16.99355,-3.91939 -2.26791,0 -3.92225,0.97483 -3.92225,3.67855 l 0,39.45762 -10.45647,0 0,-38.1072 c 0,-8.28604 4.32938,-14.18089 13.06557,-14.18089 15.20159,0 28.76317,7.84451 28.76317,7.84451 l 0,44.44358 -10.4536,0 z"
         style="fill:#58488a;fill-opacity:1;fill-rule:nonzero;stroke:none"
         id="path98-4"
         inkscape:connector-curvature="0" /><path
         d="m 274.51118,171.24256 c -8.7964,0 -13.0025,5.75149 -13.0025,18.37265 0,13.37235 5.48485,18.22929 13.0025,18.22929 8.79352,0 12.99962,-5.75149 12.99962,-18.37265 0,-13.37235 -5.48484,-18.22929 -12.99962,-18.22929 m 0,44.44358 c -13.8483,0 -23.53065,-7.26247 -23.53065,-26.36625 0,-18.02859 7.32842,-25.92184 23.53065,-25.92184 13.84256,0 23.52777,7.26534 23.52777,26.36912 0,18.02859 -7.33128,25.91897 -23.52777,25.91897"
         style="fill:#58488a;fill-opacity:1;fill-rule:nonzero;stroke:none"
         id="path102-2"
         inkscape:connector-curvature="0" /><path
         d="m 216.99342,163.3992 10.45647,0 0,39.21678 c 3.79323,2.09015 10.07514,3.82477 18.30097,3.91939 l 0,9.06017 c -16.60075,0 -28.75744,-7.75276 -28.75744,-7.75276 l 0,-44.44358 z"
         style="fill:#58488a;fill-opacity:1;fill-rule:nonzero;stroke:none"
         id="path106-2"
         inkscape:connector-curvature="0" /><path
         d="m 332.65225,191.19615 c 6.84387,8.86807 12.40326,17.18566 15.59726,24.49114 l -10.86361,0 c -3.71008,-7.76996 -8.04807,-14.81453 -13.20319,-20.91581 l -7.84164,0 0,41.83161 -10.45934,0 0,-73.20389 10.45934,0 0,23.53064 7.84164,0 c 5.0519,-6.2475 10.09521,-13.91424 15.12704,-23.52777 l 11.01844,0 c -4.95156,9.88304 -10.63711,19.2844 -17.67594,27.79408"
         style="fill:#58488a;fill-opacity:1;fill-rule:nonzero;stroke:none"
         id="path110-3"
         inkscape:connector-curvature="0" /></g><g
       id="g3372"
       style="fill:#58488a;fill-opacity:1"
       transform="matrix(2.8671328,0,0,2.8671328,-1348.7822,-129.57414)"><path
         d="m 339.2467,73.0157 c 0,-0.804 -0.654,-1.459 -1.459,-1.459 l -26.261,0 c -0.804,0 -1.459,0.655 -1.459,1.459 l 0,29.908 c 0,0.805 0.655,1.459 1.459,1.459 l 26.261,0 c 0.805,0 1.459,-0.654 1.459,-1.459 l 0,-29.908 z m -1.459,33.191 -26.261,0 c -1.813,0 -3.283,-1.47 -3.283,-3.283 l 0,-29.908 c 0,-1.813 1.47,-3.283 3.283,-3.283 l 26.261,0 c 1.813,0 3.283,1.47 3.283,3.283 l 0,29.908 c 0,1.813 -1.47,3.283 -3.283,3.283"
         style="fill:#58488a;fill-opacity:1;fill-rule:nonzero;stroke:none"
         id="path74"
         inkscape:connector-curvature="0" /><path
         d="m 316.4507,75.2041 4.103,3.647 -4.103,3.648 0,-7.295 z"
         style="fill:#58488a;fill-opacity:1;fill-rule:nonzero;stroke:none"
         id="path78"
         inkscape:connector-curvature="0" /><path
         d="m 331.2759,89.9873 c -0.735,0.744 -2.085,1.63 -4.339,1.63 -2.473,0 -5.018,-0.643 -6.839,-1.236 l 0,10.354 -3.647,0 0,-15.817 2.576,1.168 c 0.042,0.019 4.201,1.884 7.91,1.884 1.852,0 2.262,-1.023 2.28,-1.874 l 0,-10.892 3.647,0 0,10.942 c 0.002,0.233 -0.019,2.255 -1.588,3.841"
         style="fill:#58488a;fill-opacity:1;fill-rule:nonzero;stroke:none"
         id="path82"
         inkscape:connector-curvature="0" /><path
         d="m 326.4809,94.8087 3.647,0 c 1.65,1.869 2.49,3.855 2.736,5.927 l -3.647,0 c -0.403,-2.067 -1.303,-4.046 -2.736,-5.927"
         style="fill:#58488a;fill-opacity:1;fill-rule:nonzero;stroke:none"
         id="path86"
         inkscape:connector-curvature="0" /><path
         d="m 359.3086,93.4179 c -2.066,0 -4.653,-0.565 -6.386,-1.224 l 0,8.542 -3.646,0 0,-25.532 3.646,0 0,13.85 c 1.794,0.816 4.289,1.223 5.87,1.223 0.789,0 1.457,-0.407 1.457,-1.35 l 0,-13.723 3.617,0 0,13.222 c 0,2.888 -1.246,4.992 -4.558,4.992"
         style="fill:#58488a;fill-opacity:1;fill-rule:nonzero;stroke:none"
         id="path90"
         inkscape:connector-curvature="0" /><path
         d="m 370.2493,86.1462 c 0.061,1.916 0.313,3.769 0.313,3.769 0,0 1.841,0.385 4.274,0.385 2.434,0 3.164,-1.547 3.164,-4.154 l -7.751,0 z m 4.587,7.295 c -3.068,0 -5.499,-0.377 -7.322,-1.099 -0.699,-2.513 -0.912,-5.053 -0.912,-8.067 0,-5.497 0.942,-9.071 7.02,-9.071 2.826,0 5.196,0.878 7.141,1.79 l -0.608,2.826 c -1.823,-0.722 -4.194,-1.445 -6.291,-1.445 -2.673,0 -3.524,0.545 -3.645,5.035 l 10.972,0 0,1.916 c 0,4.993 -1.648,8.115 -6.355,8.115"
         style="fill:#58488a;fill-opacity:1;fill-rule:nonzero;stroke:none"
         id="path94"
         inkscape:connector-curvature="0" /><path
         d="m 444.1099,93.441 -10e-4,-13.678 c 0,0 -2.565,-1.367 -5.927,-1.367 -0.791,0 -1.368,0.34 -1.368,1.283 l 0,13.762 -3.647,0 0,-13.291 c 0,-2.89 1.51,-4.946 4.557,-4.946 5.302,0 10.032,2.736 10.032,2.736 l 0,15.501 -3.646,0 z"
         style="fill:#58488a;fill-opacity:1;fill-rule:nonzero;stroke:none"
         id="path98"
         inkscape:connector-curvature="0" /><path
         d="m 403.988,77.9397 c -3.068,0 -4.535,2.006 -4.535,6.408 0,4.664 1.913,6.358 4.535,6.358 3.067,0 4.534,-2.006 4.534,-6.408 0,-4.664 -1.913,-6.358 -4.534,-6.358 m 0,15.501 c -4.83,0 -8.207,-2.533 -8.207,-9.196 0,-6.288 2.556,-9.041 8.207,-9.041 4.828,0 8.206,2.534 8.206,9.197 0,6.288 -2.557,9.04 -8.206,9.04"
         style="fill:#58488a;fill-opacity:1;fill-rule:nonzero;stroke:none"
         id="path102"
         inkscape:connector-curvature="0" /><path
         d="m 383.927,75.2041 3.647,0 0,13.678 c 1.323,0.729 3.514,1.334 6.383,1.367 l 0,3.16 c -5.79,0 -10.03,-2.704 -10.03,-2.704 l 0,-15.501 z"
         style="fill:#58488a;fill-opacity:1;fill-rule:nonzero;stroke:none"
         id="path106"
         inkscape:connector-curvature="0" /><path
         d="m 424.2664,84.8991 c 2.387,3.093 4.326,5.994 5.44,8.542 l -3.789,0 c -1.294,-2.71 -2.807,-5.167 -4.605,-7.295 l -2.735,0 0,14.59 -3.648,0 0,-25.532 3.648,0 0,8.207 2.735,0 c 1.762,-2.179 3.521,-4.853 5.276,-8.206 l 3.843,0 c -1.727,3.447 -3.71,6.726 -6.165,9.694"
         style="fill:#58488a;fill-opacity:1;fill-rule:nonzero;stroke:none"
         id="path110"
         inkscape:connector-curvature="0" /></g><g
       id="g4176"
       transform="translate(-460.30013,141.05972)"><path
         inkscape:connector-curvature="0"
         id="path4178"
         style="fill:#410099;fill-opacity:1;fill-rule:nonzero;stroke:none"
         d="m 62.744568,219.60839 -10.456471,0 c 4.108616,5.3931 6.689045,11.06718 7.841636,16.99356 l 10.459338,0 c -0.708184,-5.94072 -3.116584,-11.63487 -7.844503,-16.99356 m -2.614835,-56.21034 0,31.22893 C 60.078125,197.06978 58.902596,200 53.595514,200 42.961281,200 31.033966,194.65278 30.916413,194.59831 l -7.388627,-3.34596 0,45.3496 10.459337,0 0,-29.6864 c 5.221068,1.69735 12.517947,3.54379 19.608391,3.54379 6.462541,0 10.333184,-2.54315 12.440534,-4.67344 4.49568,-4.55016 4.558757,-10.34465 4.550156,-11.0127 l 0.0029,-31.37515 -10.459338,0 z m -36.601947,0 0,20.91581 11.766755,-10.45647 -11.766755,-10.45934 z m 61.17623,88.89004 -75.2940424,0 c -5.1981302,0 -9.4099632794,-4.2147 -9.4099632794,-9.41283 l 0,-85.75052 c 0,-5.19813 4.2118330794,-9.41283 9.4099632794,-9.41283 l 75.2940424,0 c 5.19813,0 9.41283,4.2147 9.41283,9.41283 l 0,85.75052 c 0,5.19813 -4.2147,9.41283 -9.41283,9.41283" /><path
         inkscape:connector-curvature="0"
         id="path4180"
         style="fill:#410099;fill-opacity:1;fill-rule:nonzero;stroke:none"
         d="m 146.40895,215.62077 c -5.92352,0 -13.34082,-1.61994 -18.30958,-3.50938 l 0,24.49113 -10.4536,0 0,-73.20389 10.4536,0 0,39.70993 c 5.14366,2.33959 12.29718,3.50651 16.83013,3.50651 2.26218,0 4.17743,-1.16692 4.17743,-3.87064 l 0,-39.3458 10.37046,0 0,37.90936 c 0,8.28031 -3.57247,14.31278 -13.06844,14.31278" /><path
         inkscape:connector-curvature="0"
         id="path4182"
         style="fill:#410099;fill-opacity:1;fill-rule:nonzero;stroke:none"
         d="m 177.7775,194.77177 c 0.17489,5.49344 0.89741,10.80626 0.89741,10.80626 0,0 5.27841,1.10385 12.25417,1.10385 6.97863,0 9.07164,-4.43547 9.07164,-11.91011 l -22.22322,0 z m 13.15158,20.9158 c -8.79639,0 -15.76642,-1.08091 -20.99322,-3.15099 -2.00413,-7.20513 -2.61483,-14.48767 -2.61483,-23.12924 0,-15.76068 2.70085,-26.00785 20.12734,-26.00785 8.10255,0 14.89768,2.51735 20.47427,5.13218 l -1.74322,8.10255 c -5.2268,-2.07008 -12.0248,-4.14302 -18.0372,-4.14302 -7.66387,0 -10.10381,1.56259 -10.45074,14.43606 l 31.4583,0 0,5.49345 c 0,14.31564 -4.72505,23.26686 -18.2207,23.26686" /><path
         inkscape:connector-curvature="0"
         id="path4184"
         style="fill:#410099;fill-opacity:1;fill-rule:nonzero;stroke:none"
         d="m 389.5464,215.687 -0.003,-39.21678 c 0,0 -7.35422,-3.91939 -16.99355,-3.91939 -2.26791,0 -3.92225,0.97483 -3.92225,3.67855 l 0,39.45762 -10.45647,0 0,-38.1072 c 0,-8.28604 4.32938,-14.18089 13.06557,-14.18089 15.20159,0 28.76317,7.84451 28.76317,7.84451 l 0,44.44358 -10.4536,0 z" /><path
         inkscape:connector-curvature="0"
         id="path4186"
         style="fill:#410099;fill-opacity:1;fill-rule:nonzero;stroke:none"
         d="m 274.51118,171.24256 c -8.7964,0 -13.0025,5.75149 -13.0025,18.37265 0,13.37235 5.48485,18.22929 13.0025,18.22929 8.79352,0 12.99962,-5.75149 12.99962,-18.37265 0,-13.37235 -5.48484,-18.22929 -12.99962,-18.22929 m 0,44.44358 c -13.8483,0 -23.53065,-7.26247 -23.53065,-26.36625 0,-18.02859 7.32842,-25.92184 23.53065,-25.92184 13.84256,0 23.52777,7.26534 23.52777,26.36912 0,18.02859 -7.33128,25.91897 -23.52777,25.91897" /><path
         inkscape:connector-curvature="0"
         id="path4188"
         style="fill:#410099;fill-opacity:1;fill-rule:nonzero;stroke:none"
         d="m 216.99342,163.3992 10.45647,0 0,39.21678 c 3.79323,2.09015 10.07514,3.82477 18.30097,3.91939 l 0,9.06017 c -16.60075,0 -28.75744,-7.75276 -28.75744,-7.75276 l 0,-44.44358 z" /><path
         inkscape:connector-curvature="0"
         id="path4190"
         style="fill:#410099;fill-opacity:1;fill-rule:nonzero;stroke:none"
         d="m 332.65225,191.19615 c 6.84387,8.86807 12.40326,17.18566 15.59726,24.49114 l -10.86361,0 c -3.71008,-7.76996 -8.04807,-14.81453 -13.20319,-20.91581 l -7.84164,0 0,41.83161 -10.45934,0 0,-73.20389 10.45934,0 0,23.53064 7.84164,0 c 5.0519,-6.2475 10.09521,-13.91424 15.12704,-23.52777 l 11.01844,0 c -4.95156,9.88304 -10.63711,19.2844 -17.67594,27.79408" /></g></g></svg>