<?xml version="1.0" encoding="UTF-8" standalone="no"?>
<!-- Created with Inkscape (http://www.inkscape.org/) -->

<svg
   xmlns:dc="http://purl.org/dc/elements/1.1/"
   xmlns:cc="http://creativecommons.org/ns#"
   xmlns:rdf="http://www.w3.org/1999/02/22-rdf-syntax-ns#"
   xmlns:svg="http://www.w3.org/2000/svg"
   xmlns="http://www.w3.org/2000/svg"
   xmlns:sodipodi="http://sodipodi.sourceforge.net/DTD/sodipodi-0.dtd"
   xmlns:inkscape="http://www.inkscape.org/namespaces/inkscape"
   id="svg2"
   version="1.1"
   inkscape:version="0.48.4 r9939"
   width="500"
   height="500"
   xml:space="preserve"
   sodipodi:docname="heroku_h.svg"
   inkscape:export-filename="/run/user/1000/gvfs/sftp:host=grappa,user=ldovat/if/home/ldovat/.WWW/inicio/images/heroku_h.png"
   inkscape:export-xdpi="90"
   inkscape:export-ydpi="90"><metadata
     id="metadata8"><rdf:RDF><cc:Work
         rdf:about=""><dc:format>image/svg+xml</dc:format><dc:type
           rdf:resource="http://purl.org/dc/dcmitype/StillImage" /><dc:title /></cc:Work></rdf:RDF></metadata><defs
     id="defs6"><clipPath
       clipPathUnits="userSpaceOnUse"
       id="clipPath68"><path
         d="m 270,53.32 216,0 0,69.3 -216,0 0,-69.3 z"
         id="path70"
         inkscape:connector-curvature="0" /></clipPath><clipPath
       clipPathUnits="userSpaceOnUse"
       id="clipPath134"><path
         d="m 270,166.493 216,0 0,69.303 -216,0 0,-69.303 z"
         id="path136"
         inkscape:connector-curvature="0" /></clipPath><clipPath
       clipPathUnits="userSpaceOnUse"
       id="clipPath200"><path
         d="m 18,166.493 216,0 0,69.302 -216,0 0,-69.302 z"
         id="path202"
         inkscape:connector-curvature="0" /></clipPath><clipPath
       clipPathUnits="userSpaceOnUse"
       id="clipPath242"><path
         d="m 18,53.32 216,0 0,69.3 -216,0 0,-69.3 z"
         id="path244"
         inkscape:connector-curvature="0" /></clipPath></defs><sodipodi:namedview
     pagecolor="#ffffff"
     bordercolor="#666666"
     borderopacity="1"
     objecttolerance="10"
     gridtolerance="10"
     guidetolerance="10"
     inkscape:pageopacity="0"
     inkscape:pageshadow="2"
     inkscape:window-width="1855"
     inkscape:window-height="1056"
     id="namedview4"
     showgrid="false"
     inkscape:snap-bbox="true"
     inkscape:bbox-paths="true"
     inkscape:snap-page="true"
     inkscape:zoom="0.67425131"
     inkscape:cx="-100.45325"
     inkscape:cy="240.12803"
     inkscape:window-x="65"
     inkscape:window-y="24"
     inkscape:window-maximized="1"
     inkscape:current-layer="g10" /><g
     id="g10"
     inkscape:groupmode="layer"
     inkscape:label="heroku_guidelines"
     transform="matrix(1.25,0,0,-1.25,0,500)"><g
       id="g3372"
       style="fill:#58488a;fill-opacity:1"
       transform="matrix(10.966716,0,0,10.966716,-3360.4233,-764.73872)"><path
         d="m 339.2467,73.0157 c 0,-0.804 -0.654,-1.459 -1.459,-1.459 l -26.261,0 c -0.804,0 -1.459,0.655 -1.459,1.459 l 0,29.908 c 0,0.805 0.655,1.459 1.459,1.459 l 26.261,0 c 0.805,0 1.459,-0.654 1.459,-1.459 l 0,-29.908 z m -1.459,33.191 -26.261,0 c -1.813,0 -3.283,-1.47 -3.283,-3.283 l 0,-29.908 c 0,-1.813 1.47,-3.283 3.283,-3.283 l 26.261,0 c 1.813,0 3.283,1.47 3.283,3.283 l 0,29.908 c 0,1.813 -1.47,3.283 -3.283,3.283"
         style="fill:#58488a;fill-opacity:1;fill-rule:nonzero;stroke:none"
         id="path74"
         inkscape:connector-curvature="0" /><path
         d="m 316.4507,75.2041 4.103,3.647 -4.103,3.648 0,-7.295 z"
         style="fill:#58488a;fill-opacity:1;fill-rule:nonzero;stroke:none"
         id="path78"
         inkscape:connector-curvature="0" /><path
         d="m 331.2759,89.9873 c -0.735,0.744 -2.085,1.63 -4.339,1.63 -2.473,0 -5.018,-0.643 -6.839,-1.236 l 0,10.354 -3.647,0 0,-15.817 2.576,1.168 c 0.042,0.019 4.201,1.884 7.91,1.884 1.852,0 2.262,-1.023 2.28,-1.874 l 0,-10.892 3.647,0 0,10.942 c 0.002,0.233 -0.019,2.255 -1.588,3.841"
         style="fill:#58488a;fill-opacity:1;fill-rule:nonzero;stroke:none"
         id="path82"
         inkscape:connector-curvature="0" /><path
         d="m 326.4809,94.8087 3.647,0 c 1.65,1.869 2.49,3.855 2.736,5.927 l -3.647,0 c -0.403,-2.067 -1.303,-4.046 -2.736,-5.927"
         style="fill:#58488a;fill-opacity:1;fill-rule:nonzero;stroke:none"
         id="path86"
         inkscape:connector-curvature="0" /></g></g></svg>