<?xml version="1.0" encoding="UTF-8" standalone="no"?>
<!-- Created with Inkscape (http://www.inkscape.org/) -->

<svg
   xmlns:dc="http://purl.org/dc/elements/1.1/"
   xmlns:cc="http://creativecommons.org/ns#"
   xmlns:rdf="http://www.w3.org/1999/02/22-rdf-syntax-ns#"
   xmlns:svg="http://www.w3.org/2000/svg"
   xmlns="http://www.w3.org/2000/svg"
   xmlns:xlink="http://www.w3.org/1999/xlink"
   xmlns:sodipodi="http://sodipodi.sourceforge.net/DTD/sodipodi-0.dtd"
   xmlns:inkscape="http://www.inkscape.org/namespaces/inkscape"
   width="84.684113"
   height="84.684113"
   id="svg2"
   version="1.1"
   inkscape:version="0.91 r13725"
   sodipodi:docname="microsiervos.svg"
   inkscape:export-filename="/home/chrono/WWW/inicio/images/microsiervos.png"
   inkscape:export-xdpi="531.3866"
   inkscape:export-ydpi="531.3866">
  <defs
     id="defs4" />
  <sodipodi:namedview
     id="base"
     pagecolor="#ffffff"
     bordercolor="#666666"
     borderopacity="1.0"
     inkscape:pageopacity="0.0"
     inkscape:pageshadow="2"
     inkscape:zoom="6.8147169"
     inkscape:cx="55.612931"
     inkscape:cy="42.848888"
     inkscape:document-units="px"
     inkscape:current-layer="layer2"
     showgrid="false"
     showguides="false"
     inkscape:guide-bbox="true"
     inkscape:snap-bbox="false"
     inkscape:bbox-nodes="true"
     inkscape:snap-bbox-edge-midpoints="false"
     inkscape:object-nodes="true"
     inkscape:object-paths="true"
     inkscape:snap-smooth-nodes="true"
     inkscape:snap-to-guides="false"
     inkscape:snap-grids="false"
     inkscape:snap-global="true"
     inkscape:window-width="1440"
     inkscape:window-height="834"
     inkscape:window-x="-2"
     inkscape:window-y="-3"
     inkscape:window-maximized="1"
     fit-margin-top="0"
     fit-margin-left="0"
     fit-margin-right="0"
     fit-margin-bottom="0">
    <inkscape:grid
       type="xygrid"
       id="grid3069"
       empspacing="5"
       visible="true"
       enabled="true"
       snapvisiblegridlinesonly="true"
       originx="-274.948px"
       originy="-379.4072px" />
  </sodipodi:namedview>
  <metadata
     id="metadata7">
    <rdf:RDF>
      <cc:Work
         rdf:about="">
        <dc:format>image/svg+xml</dc:format>
        <dc:type
           rdf:resource="http://purl.org/dc/dcmitype/StillImage" />
        <dc:title />
      </cc:Work>
    </rdf:RDF>
  </metadata>
  <g
     inkscape:label="Capa 1"
     inkscape:groupmode="layer"
     id="layer1"
     sodipodi:insensitive="true"
     style="display:none"
     transform="translate(-274.948,-588.27087)">
    <image
       y="463.36218"
       x="272"
       id="image3063"
       xlink:href="file:///home/chrono/Imagenes/svg/logos/microsiervos/micro.png"
       height="81"
       width="97" />
  </g>
  <g
     inkscape:groupmode="layer"
     id="layer2"
     inkscape:label="cvtr"
     transform="translate(-274.948,-588.27087)">
    <rect
       style="fill:#000000;fill-opacity:1;fill-rule:nonzero;stroke:none"
       id="rect3016"
       width="316.81998"
       height="198.01248"
       x="426.21918"
       y="531.60669"
       inkscape:export-filename="/home/chrono/Imagenes/svg/logos/microsiervos/microsiervos_1680x1050.png"
       inkscape:export-xdpi="477.23999"
       inkscape:export-ydpi="477.23999" />
    <g
       id="g3013"
       transform="translate(-3.20995,131.25118)">
      <path
         inkscape:export-ydpi="1183.9695"
         inkscape:export-xdpi="1183.9695"
         sodipodi:nodetypes="ccccccc"
         inkscape:connector-curvature="0"
         d="m 355.5,515.86218 2,-33 c -11.5935,-6.18965 -24.12518,-11.646 -37,-14 -12.87482,2.354 -25.4065,7.81035 -37,14 l 2,33 c 10.23297,7.86022 21.85543,14.88674 35,21 13.14457,-6.11326 24.76703,-13.13978 35,-21 z"
         style="fill:#ffffff;stroke:none;stroke-width:2;stroke-linecap:round;stroke-linejoin:round"
         id="path3364" />
      <path
         sodipodi:nodetypes="ccccc"
         inkscape:connector-curvature="0"
         id="path3007"
         d="m 357.5,482.86218 -2,33 c -10.23297,7.86022 -21.85543,14.88674 -35,21 l 0,-37 c 6.71779,-6.81461 22.69814,-13.5702 37,-17 z"
         style="fill:#c6d9f4;fill-opacity:1;stroke:none"
         inkscape:export-filename="/home/chrono/Imagenes/svg/logos/microsiervos/path3215.png"
         inkscape:export-xdpi="1183.9695"
         inkscape:export-ydpi="1183.9695" />
      <path
         style="fill:#c6d9f4;fill-opacity:1;stroke:none"
         d="m 317.78362,498.61411 c -9.48724,-5.31863 -19.19216,-10.474 -30.84203,-14.17066 6.14692,4.83457 19.5942,10.97862 30.84203,14.17066 z"
         id="path3009"
         inkscape:connector-curvature="0"
         sodipodi:nodetypes="ccc"
         inkscape:export-filename="/home/chrono/Imagenes/svg/logos/microsiervos/path3215.png"
         inkscape:export-xdpi="1183.9695"
         inkscape:export-ydpi="1183.9695" />
      <path
         id="path3011"
         style="fill:none;stroke:#0747a5;stroke-width:2;stroke-linecap:round;stroke-linejoin:round"
         d="m 355.5,515.86218 2,-33 c -11.5935,-6.18965 -24.12518,-11.646 -37,-14 -12.87482,2.354 -25.4065,7.81035 -37,14 l 2,33 c 10.23297,7.86022 21.85543,14.88674 35,21 13.14457,-6.11326 24.76703,-13.13978 35,-21 z"
         inkscape:connector-curvature="0"
         sodipodi:nodetypes="ccccccc"
         inkscape:export-xdpi="1183.9695"
         inkscape:export-ydpi="1183.9695" />
    </g>
    <path
       sodipodi:nodetypes="ccccc"
       inkscape:connector-curvature="0"
       id="path3162"
       d="m 357.5,482.86218 -2,33 c -10.23297,7.86022 -21.85543,14.88674 -35,21 l 0,-37 c 6.71779,-6.81461 22.69814,-13.5702 37,-17 z"
       style="fill:#c6d9f4;fill-opacity:1;stroke:none"
       inkscape:export-filename="/home/chrono/Imagenes/svg/logos/microsiervos/path3215.png"
       inkscape:export-xdpi="1183.9695"
       inkscape:export-ydpi="1183.9695" />
    <path
       style="fill:#c6d9f4;fill-opacity:1;stroke:none"
       d="m 317.78362,498.61411 c -9.48724,-5.31863 -19.19216,-10.474 -30.84203,-14.17066 6.14692,4.83457 19.5942,10.97862 30.84203,14.17066 z"
       id="path3182"
       inkscape:connector-curvature="0"
       sodipodi:nodetypes="ccc"
       inkscape:export-filename="/home/chrono/Imagenes/svg/logos/microsiervos/path3215.png"
       inkscape:export-xdpi="1183.9695"
       inkscape:export-ydpi="1183.9695" />
    <path
       id="path3215"
       style="fill:none;stroke:#0747a5;stroke-width:2;stroke-linecap:round;stroke-linejoin:round"
       d="m 355.5,515.86218 2,-33 c -11.5935,-6.18965 -24.12518,-11.646 -37,-14 -12.87482,2.354 -25.4065,7.81035 -37,14 l 2,33 c 10.23297,7.86022 21.85543,14.88674 35,21 13.14457,-6.11326 24.76703,-13.13978 35,-21 z"
       inkscape:connector-curvature="0"
       sodipodi:nodetypes="ccccccc"
       inkscape:export-xdpi="1183.9695"
       inkscape:export-ydpi="1183.9695" />
    <g
       id="g3010"
       transform="translate(-96.186331,67.896234)">
      <path
         style="fill:#bbbbbb;fill-opacity:1;stroke:none"
         d="m 354.29005,614.11336 -2,33 c -10.23297,7.86022 -21.85543,14.88674 -35,21 l 0,-37 c 6.71779,-6.81461 22.69814,-13.5702 37,-17 z"
         id="path3004"
         inkscape:connector-curvature="0"
         sodipodi:nodetypes="ccccc"
         inkscape:export-filename="/home/chrono/Imagenes/svg/logos/microsiervos/path4009.png"
         inkscape:export-xdpi="1183.9695"
         inkscape:export-ydpi="1183.9695" />
      <path
         sodipodi:nodetypes="ccc"
         inkscape:connector-curvature="0"
         id="path3006"
         d="m 314.57367,629.86529 c -9.48724,-5.31863 -19.19216,-10.474 -30.84203,-14.17066 6.14692,4.83457 19.5942,10.97862 30.84203,14.17066 z"
         style="fill:#bbbbbb;fill-opacity:1;stroke:none"
         inkscape:export-filename="/home/chrono/Imagenes/svg/logos/microsiervos/path4009.png"
         inkscape:export-xdpi="1183.9695"
         inkscape:export-ydpi="1183.9695" />
      <path
         sodipodi:nodetypes="ccccccc"
         inkscape:connector-curvature="0"
         d="m 352.29005,647.11336 2,-33 c -11.5935,-6.18965 -24.12518,-11.646 -37,-14 -12.87482,2.354 -25.4065,7.81035 -37,14 l 2,33 c 10.23297,7.86022 21.85543,14.88674 35,21 13.14457,-6.11326 24.76703,-13.13978 35,-21 z"
         style="fill:none;stroke:#000000;stroke-width:2;stroke-linecap:round;stroke-linejoin:round;stroke-opacity:1"
         id="path3008"
         inkscape:export-xdpi="1183.9695"
         inkscape:export-ydpi="1183.9695" />
    </g>
    <g
       transform="translate(267.33911,0)"
       id="g3008">
      <path
         sodipodi:nodetypes="ccccccc"
         inkscape:connector-curvature="0"
         d="m 352.29005,647.11336 2,-33 c -11.5935,-6.18965 -24.12518,-11.646 -37,-14 -12.87482,2.354 -25.4065,7.81035 -37,14 l 2,33 c 10.23297,7.86022 21.85543,14.88674 35,21 13.14457,-6.11326 24.76703,-13.13978 35,-21 z"
         style="fill:#ffffff;stroke:none;stroke-width:2;stroke-linecap:round;stroke-linejoin:round;stroke-opacity:1"
         id="path3018"
         inkscape:export-xdpi="1183.9695"
         inkscape:export-ydpi="1183.9695" />
      <path
         inkscape:export-ydpi="1183.9695"
         inkscape:export-xdpi="1183.9695"
         inkscape:export-filename="/home/chrono/Imagenes/svg/logos/microsiervos/path4009.png"
         sodipodi:nodetypes="ccccc"
         inkscape:connector-curvature="0"
         id="path3010"
         d="m 354.29005,614.11336 -2,33 c -10.23297,7.86022 -21.85543,14.88674 -35,21 l 0,-37 c 6.71779,-6.81461 22.69814,-13.5702 37,-17 z"
         style="fill:#000000;fill-opacity:1;stroke:none" />
      <path
         inkscape:export-ydpi="1183.9695"
         inkscape:export-xdpi="1183.9695"
         inkscape:export-filename="/home/chrono/Imagenes/svg/logos/microsiervos/path4009.png"
         style="fill:#000000;fill-opacity:1;stroke:none"
         d="m 314.57367,629.86529 c -9.48724,-5.31863 -19.19216,-10.474 -30.84203,-14.17066 6.14692,4.83457 19.5942,10.97862 30.84203,14.17066 z"
         id="path3012"
         inkscape:connector-curvature="0"
         sodipodi:nodetypes="ccc" />
      <path
         inkscape:export-ydpi="1183.9695"
         inkscape:export-xdpi="1183.9695"
         id="path3014"
         style="fill:none;stroke:#ffffff;stroke-width:2;stroke-linecap:round;stroke-linejoin:round;stroke-opacity:1"
         d="m 352.29005,647.11336 2,-33 c -11.5935,-6.18965 -24.12518,-11.646 -37,-14 -12.87482,2.354 -25.4065,7.81035 -37,14 l 2,33 c 10.23297,7.86022 21.85543,14.88674 35,21 13.14457,-6.11326 24.76703,-13.13978 35,-21 z"
         inkscape:connector-curvature="0"
         sodipodi:nodetypes="ccccccc" />
    </g>
  </g>
  <g
     inkscape:groupmode="layer"
     id="layer3"
     inkscape:label="tmp"
     sodipodi:insensitive="true"
     style="display:none"
     transform="translate(-274.948,-588.27087)">
    <path
       sodipodi:nodetypes="ccccc"
       inkscape:connector-curvature="0"
       id="path3185"
       d="m 320,468.36218 1,0 0,1 -0.5,-0.5 z"
       style="fill:#ff0000;fill-opacity:1;fill-rule:nonzero;stroke:none" />
    <path
       sodipodi:nodetypes="ccccc"
       inkscape:connector-curvature="0"
       id="path3187"
       d="m 320,536.36218 1,0 0,1 -0.5,-0.5 z"
       style="fill:#ff0000;fill-opacity:1;fill-rule:nonzero;stroke:none" />
    <path
       sodipodi:nodetypes="ccccc"
       inkscape:connector-curvature="0"
       id="path3189"
       d="m 284,482.36218 1,0 0,1 -0.5,-0.5 z"
       style="fill:#ff0000;fill-opacity:1;fill-rule:nonzero;stroke:none" />
    <path
       sodipodi:nodetypes="ccccc"
       inkscape:connector-curvature="0"
       id="path3191"
       d="m 357,482.36218 1,0 0,1 -0.5,-0.5 z"
       style="fill:#ff0000;fill-opacity:1;fill-rule:nonzero;stroke:none" />
    <path
       sodipodi:nodetypes="ccccc"
       inkscape:connector-curvature="0"
       id="path3193"
       d="m 286,515.36218 1,0 0,1 -0.5,-0.5 z"
       style="fill:#ff0000;fill-opacity:1;fill-rule:nonzero;stroke:none" />
    <path
       sodipodi:nodetypes="ccccc"
       inkscape:connector-curvature="0"
       id="path3195"
       d="m 355,515.36218 1,0 0,1 -0.5,-0.5 z"
       style="fill:#ff0000;fill-opacity:1;fill-rule:nonzero;stroke:none" />
    <path
       sodipodi:nodetypes="cccc"
       inkscape:connector-curvature="0"
       id="path3197"
       d="m 320.5,468.86218 c 12.87482,2.354 25.4065,7.81035 37,14 l -2,33 c -10.23297,7.86022 -21.85543,14.88674 -35,21"
       style="fill:none;stroke:#008000" />
    <path
       style="fill:#c6d9f4;fill-opacity:1;stroke:none"
       d="m 357.5,482.86218 -2,33 c -10.23297,7.86022 -21.85543,14.88674 -35,21 l 0,-37 c 6.71779,-6.81461 22.69814,-13.5702 37,-17 z"
       id="path3199"
       inkscape:connector-curvature="0"
       sodipodi:nodetypes="ccccc" />
    <path
       sodipodi:nodetypes="ccccc"
       inkscape:connector-curvature="0"
       id="path3201"
       d="m 320,499.36218 1,0 0,1 -0.5,-0.5 z"
       style="fill:#ff0000;fill-opacity:1;fill-rule:nonzero;stroke:none" />
    <path
       sodipodi:nodetypes="ccccc"
       inkscape:connector-curvature="0"
       id="path3203"
       d="m 283.5,482.86218 2,33 c 10.23297,7.86022 21.85543,14.88674 35,21 l 0,-37 c -6.71779,-6.81461 -22.69814,-13.5702 -37,-17 z"
       style="fill:#c6d9f4;fill-opacity:1;stroke:none" />
  </g>
</svg>
