<?xml version="1.0" encoding="UTF-8" standalone="no"?>
<!-- Generator: Adobe Illustrator 17.0.0, SVG Export Plug-In . SVG Version: 6.00 Build 0)  -->

<svg
   xmlns:dc="http://purl.org/dc/elements/1.1/"
   xmlns:cc="http://creativecommons.org/ns#"
   xmlns:rdf="http://www.w3.org/1999/02/22-rdf-syntax-ns#"
   xmlns:svg="http://www.w3.org/2000/svg"
   xmlns="http://www.w3.org/2000/svg"
   xmlns:sodipodi="http://sodipodi.sourceforge.net/DTD/sodipodi-0.dtd"
   xmlns:inkscape="http://www.inkscape.org/namespaces/inkscape"
   version="1.1"
   id="Layer_1"
   x="0px"
   y="0px"
   width="500"
   height="500"
   viewBox="0 0 500 500.00003"
   enable-background="new 0 0 646.497 136.844"
   xml:space="preserve"
   inkscape:version="0.91 r13725"
   sodipodi:docname="Tumblr_Logo_chr.svg"
   inkscape:export-filename="/home/chrono/Imagenes/svg/logos/tumblr/tumblr.png"
   inkscape:export-xdpi="264.90067"
   inkscape:export-ydpi="264.90067"><metadata
     id="metadata23"><rdf:RDF><cc:Work
         rdf:about=""><dc:format>image/svg+xml</dc:format><dc:type
           rdf:resource="http://purl.org/dc/dcmitype/StillImage" /><dc:title></dc:title></cc:Work></rdf:RDF></metadata><defs
     id="defs21" /><sodipodi:namedview
     pagecolor="#ffffff"
     bordercolor="#666666"
     borderopacity="1"
     objecttolerance="10"
     gridtolerance="10"
     guidetolerance="10"
     inkscape:pageopacity="0"
     inkscape:pageshadow="2"
     inkscape:window-width="1440"
     inkscape:window-height="834"
     id="namedview19"
     showgrid="false"
     fit-margin-top="10"
     fit-margin-left="10"
     fit-margin-right="10"
     fit-margin-bottom="10"
     inkscape:zoom="0.78680757"
     inkscape:cx="-63.777449"
     inkscape:cy="351.29622"
     inkscape:window-x="-2"
     inkscape:window-y="-3"
     inkscape:window-maximized="1"
     inkscape:current-layer="Layer_1"
     inkscape:snap-bbox="true"
     inkscape:bbox-paths="true"
     inkscape:snap-page="true"
     inkscape:bbox-nodes="true" /><path
     style="fill:#36465d;fill-opacity:1;stroke:none"
     d="M 84.450346,-9.8837972e-8 C 37.597191,-9.8837972e-8 -0.15001244,37.72456 -0.15001244,84.549635 l 0,330.900735 c 0,46.82504 37.74720344,84.54966 84.60035844,84.54966 l 331.099334,0 c 46.85312,0 84.60033,-37.72462 84.60033,-84.54966 l 0,-330.900735 C 500.15001,37.72456 462.4028,-9.8837972e-8 415.54968,-9.8837972e-8 l -331.099334,0 z M 227.78067,28.982486 l 64.7803,0 0,111.864074 82.20108,0 0,75.3753 -82.51405,0 0,129.89989 c 0.30043,18.73233 7.15358,44.51213 42.56099,43.57804 11.75362,-0.31365 27.44101,-3.70393 35.67613,-7.61054 l 21.28048,63.07343 c -7.99144,11.72642 -44.0614,25.30105 -76.56802,25.85486 -96.34805,1.6514 -126.53545,-68.57718 -126.53545,-118.015 l 0,-136.78068 -51.1149,0 0,-64.84571 c 67.0861,-24.17015 83.19751,-84.696419 86.99963,-119.161788 0.26037,-2.365327 2.17563,-3.231876 3.23381,-3.231876 z"
     id="rect3007"
     inkscape:connector-curvature="0" /></svg>