<?xml version="1.0" encoding="UTF-8" standalone="no"?>
<!-- Created with Inkscape (http://www.inkscape.org/) -->

<svg
   xmlns:dc="http://purl.org/dc/elements/1.1/"
   xmlns:cc="http://creativecommons.org/ns#"
   xmlns:rdf="http://www.w3.org/1999/02/22-rdf-syntax-ns#"
   xmlns:svg="http://www.w3.org/2000/svg"
   xmlns="http://www.w3.org/2000/svg"
   xmlns:sodipodi="http://sodipodi.sourceforge.net/DTD/sodipodi-0.dtd"
   xmlns:inkscape="http://www.inkscape.org/namespaces/inkscape"
   width="500"
   height="500"
   id="svg3215"
   version="1.1"
   inkscape:version="0.48.4 r9939"
   sodipodi:docname="tumblr.svg"
   inkscape:export-filename="/home/chrono/Documentos/startbootstrap-thumbnail-gallery-1.0.2/images/tumblr.png"
   inkscape:export-xdpi="90"
   inkscape:export-ydpi="90">
  <defs
     id="defs3217" />
  <sodipodi:namedview
     id="base"
     pagecolor="#ffffff"
     bordercolor="#666666"
     borderopacity="1.0"
     inkscape:pageopacity="0.0"
     inkscape:pageshadow="2"
     inkscape:zoom="0.98994949"
     inkscape:cx="465.88609"
     inkscape:cy="283.2832"
     inkscape:document-units="px"
     inkscape:current-layer="layer1"
     showgrid="false"
     inkscape:snap-bbox="true"
     inkscape:bbox-paths="true"
     inkscape:snap-page="true"
     inkscape:window-width="1600"
     inkscape:window-height="846"
     inkscape:window-x="0"
     inkscape:window-y="0"
     inkscape:window-maximized="1" />
  <metadata
     id="metadata3220">
    <rdf:RDF>
      <cc:Work
         rdf:about="">
        <dc:format>image/svg+xml</dc:format>
        <dc:type
           rdf:resource="http://purl.org/dc/dcmitype/StillImage" />
        <dc:title></dc:title>
      </cc:Work>
    </rdf:RDF>
  </metadata>
  <g
     inkscape:label="Capa 1"
     inkscape:groupmode="layer"
     id="layer1"
     transform="translate(0,-552.36218)">
    <g
       id="g3334"
       transform="matrix(0.77399381,0,0,0.77399381,-0.11919505,737.46851)">
      <g
         id="g3336">
        <path
           id="path3338"
           d="m 627.458,96.778286 c -10.326,0 -18.693,8.198004 -18.693,18.307004 0,10.101 8.367,18.3 18.693,18.3 10.328,0 18.696,-8.199 18.696,-18.3 0,-10.109 -8.368,-18.307004 -18.696,-18.307004 M 525.095,107.19329 525.124,-0.15271429 h -11.292 c 0,0 -18.76,6.78499999 -32.272,8.22799999 V 28.352286 h 8.531 c 2.742,0 3.894,1.171 3.934,3.733 v 75.109004 c 0,2.646 -1.556,4.097 -4.073,4.261 -2.155,0.143 -6.984,0.455 -6.984,0.455 v 20.28 h 53.188 v -20.28 c 0,0 -4.836,-0.312 -6.986,-0.455 -2.522,-0.165 -4.075,-1.616 -4.075,-4.262 z m 107.51,-53.279004 c -1.037,-22.621 -31.673,-23.662 -47.686,-8.381 l -2.923,-8.759 H 544.97 v 20.731 l 7.764,-0.011 c 2.753,0 3.769,1.168 3.806,3.729 v 45.971004 c 0,2.646 -1.558,4.097 -4.076,4.261 -2.156,0.143 -6.494,0.451 -6.494,0.451 v 20.284 h 52.133 v -20.284 c 0,0 -4.312,-0.309 -6.461,-0.451 -2.521,-0.164 -4.082,-1.614 -4.082,-4.261 l -0.012,-31.169004 c 0,-5.842 1.339,-15.591 11.649,-18.085 1.271,9.749 10.689,12.661 15.286,12.661 11.603,-0.002 18.122,-8.689 18.122,-16.687 z m -196.42,-18.409 c -7.895,0.346 -16.223,3.367 -22.272,8.624 V -0.15271429 h -11.176 c 0,0 -18.273,6.49199999 -32.42,8.22799999 l -0.461,20.2770003 8.942,0.013 c 2.745,0 3.927,1.169 3.964,3.734 V 132.20129 l 25.554,-0.026 3.655,-8.214 c 0.78,0.438 12.506,11.459 31.23,9.254 23.573,-2.779 35.954,-21.444 35.954,-49.763004 0,-14.857 -4.556,-49.626 -42.97,-47.947 z m -4.729,74.554004 c -4.342,0.32 -12.377,-0.41 -17.544,-9.479 V 87.294286 l 0.004,-0.008 h -0.004 c 0,0 0,-9.655 0,-15.362 0,-6.641 6.136,-12.471 15.628,-12.823 9.613,-0.356 18.125,6.206 18.125,24.74 0,25.004004 -10.967,25.829004 -16.209,26.218004 z m -68.859,-2.785 c 0,0 0.002,-23.559004 0.002,-28.944004 0,-10.315 -0.124,-20.975 -6.952,-29.677 -6.254,-7.963 -16.629,-13.803 -32.382,-13.045 -10.462,0.504 -21.621,5.366 -27.782,13.692 l -0.971,1.226 -0.59,-0.71 c -6.333,-9.146 -16.446,-14.965 -32.197,-14.208 -10.465,0.504 -21.624,5.366 -27.785,13.692 l -0.925,-12.431 h -38.603 v 20.735 l 8.884,0.131 c 2.748,0 3.907,1.169 3.945,3.733 l 10e-4,40.577004 v 5.229 c 0,2.647 -1.557,4.099 -4.072,4.264 -2.156,0.142 -6.519,0.451 -6.519,0.451 v 20.279 l 52.2,0.018 v -20.297 c 0,0 -4.113,-0.291 -6.52,-0.451 -2.517,-0.172 -4.07,-1.616 -4.07,-4.264 0,0 0.042,-25.899004 0.042,-31.086004 0,-5.179 4.287,-15.809 17.894,-15.809 10.977,0 13.226,6.69 13.226,14.476 0,7.783 0.012,32.423004 0.012,32.423004 0,2.647 -1.554,4.095 -4.069,4.26 -2.155,0.145 -6.52,0.457 -6.52,0.457 v 20.273 h 52.145 v -20.279 c 0,0 -4.111,-0.291 -6.521,-0.451 -2.515,-0.172 -4.047,-1.616 -4.047,-4.264 h -0.078 c 0,0 0.045,-25.899004 0.045,-31.086004 0,-5.179 3.822,-15.809 17.432,-15.809 10.976,0 13.724,6.69 13.724,14.476 v 27.189004 l -0.006,5.233 c 0,2.647 -1.559,4.095 -4.071,4.26 -2.157,0.145 -6.521,0.457 -6.521,0.457 v 20.273 h 52.213 v -20.278 c 0,0 -4.113,-0.291 -6.518,-0.451 -2.517,-0.172 -4.046,-1.617 -4.046,-4.264 z m -185.139,0.198 V 36.874286 h -43.382 v 20.729 l 8.358,0.002 c 2.752,0 3.907,1.17 3.944,3.733 l -0.043,32.204 c 0,3.157 -2.276,15.012004 -18.081,15.309004 -10.77,0.207 -13.036,-6.145 -13.036,-14.475004 v -57.502 H 83.273 v 59.146 c 0,14.966004 6.835,38.510004 38.726,37.649004 10.47,-0.288 22.465,-5.554 28.698,-13.276 l 0.261,11.893 h 35.597 v -20.279 c 0,0 -2.879,-0.224 -5.035,-0.368 -2.516,-0.164 -4.062,-1.517 -4.062,-4.167 z m -118.259,2.351 c -10.6,0.272 -12.65,-7.29 -12.741,-12.781004 v -38.093 h 24.703 v -22.077 H 46.557 V 4.0592857 c 0,0 -19.079,0 -19.398,0 -0.318,0 -0.874,0.275 -0.952,0.97 C 25.069,15.133286 20.235,32.871286 0.154,39.956286 v 18.993 H 15.44 v 40.099 c 0,14.499004 9.042,35.094004 37.881,34.610004 9.732,-0.161 20.543,-4.152 22.936,-7.591 l -6.369,-18.483 c -2.465,1.145 -7.17,2.146 -10.689,2.239 z"
           inkscape:connector-curvature="0"
           style="fill:#314358" />
      </g>
    </g>
  </g>
</svg>
