<?xml version="1.0" encoding="UTF-8" standalone="no"?>
<!-- Created with Inkscape (http://www.inkscape.org/) -->

<svg
   xmlns:dc="http://purl.org/dc/elements/1.1/"
   xmlns:cc="http://creativecommons.org/ns#"
   xmlns:rdf="http://www.w3.org/1999/02/22-rdf-syntax-ns#"
   xmlns:svg="http://www.w3.org/2000/svg"
   xmlns="http://www.w3.org/2000/svg"
   xmlns:sodipodi="http://sodipodi.sourceforge.net/DTD/sodipodi-0.dtd"
   xmlns:inkscape="http://www.inkscape.org/namespaces/inkscape"
   width="500"
   height="500"
   id="svg2"
   version="1.1"
   inkscape:version="0.91 r13725"
   sodipodi:docname="twitter.svg"
   inkscape:export-filename="/home/chrono/WWW/inicio/images/twitter_color.png"
   inkscape:export-xdpi="90"
   inkscape:export-ydpi="90">
  <defs
     id="defs4" />
  <sodipodi:namedview
     id="base"
     pagecolor="#ffffff"
     bordercolor="#666666"
     borderopacity="1.0"
     inkscape:pageopacity="0.0"
     inkscape:pageshadow="2"
     inkscape:zoom="0.70710678"
     inkscape:cx="173.73682"
     inkscape:cy="194.58555"
     inkscape:document-units="px"
     inkscape:current-layer="layer1"
     showgrid="false"
     inkscape:window-width="1440"
     inkscape:window-height="834"
     inkscape:window-x="-2"
     inkscape:window-y="-3"
     inkscape:window-maximized="1"
     fit-margin-top="0"
     fit-margin-left="0"
     fit-margin-right="0"
     fit-margin-bottom="0"
     inkscape:snap-bbox="true"
     inkscape:snap-page="true"
     inkscape:bbox-paths="true"
     inkscape:object-nodes="true"
     inkscape:snap-smooth-nodes="true" />
  <metadata
     id="metadata7">
    <rdf:RDF>
      <cc:Work
         rdf:about="">
        <dc:format>image/svg+xml</dc:format>
        <dc:type
           rdf:resource="http://purl.org/dc/dcmitype/StillImage" />
        <dc:title />
      </cc:Work>
    </rdf:RDF>
  </metadata>
  <g
     inkscape:label="Layer 1"
     inkscape:groupmode="layer"
     id="layer1"
     transform="translate(-282.32053,-35.685727)">
    <path
       style="fill:#2aa9e0"
       inkscape:connector-curvature="0"
       id="path5"
       d="m 734.53528,189.97987 c -13.20547,5.8579 -27.39979,9.81523 -42.29407,11.59559 15.20297,-9.11354 26.88112,-23.54478 32.3783,-40.74164 -14.23022,8.4405 -29.98954,14.56762 -46.76466,17.8699 -13.43159,-14.31279 -32.57035,-23.25403 -53.75147,-23.25403 -40.66805,0 -73.6422,32.97055 -73.6422,73.63862 0,5.77177 0.65147,11.39281 1.90777,16.7823 -61.20311,-3.07073 -115.46426,-32.38907 -151.78556,-76.94267 -6.33889,10.87592 -9.97138,23.52501 -9.97138,37.02123 0,25.54943 13.00086,48.08915 32.76057,61.2946 -12.07119,-0.38227 -23.42629,-3.6953 -33.35462,-9.21042 -0.008,0.30688 -0.008,0.61556 -0.008,0.92605 0,35.67879 25.38434,65.44041 59.07277,72.21005 -6.17918,1.68343 -12.68499,2.58257 -19.4008,2.58257 -4.74519,0 -9.35757,-0.46303 -13.85512,-1.3209 9.37195,29.25552 36.56716,50.54612 68.79291,51.13836 -25.20306,19.75256 -56.95502,31.52585 -91.45826,31.52585 -5.94408,0 -11.80558,-0.34998 -17.5666,-1.03019 32.59009,20.89579 71.29832,33.08723 112.88526,33.08723 135.45192,0 209.52485,-112.21044 209.52485,-209.52664 0,-3.19278 -0.0718,-6.36762 -0.21356,-9.52809 14.38635,-10.3806 26.87034,-23.34916 36.74304,-38.11777 z"
       inkscape:export-xdpi="90"
       inkscape:export-ydpi="90" />
    <g
       id="g3355"
       transform="translate(-699.91998,-32.923065)">
      <path
         style="fill:#2aa9e0"
         inkscape:connector-curvature="0"
         id="path3349"
         d="m 778.37588,237.921 c -13.20547,5.8579 -27.39979,9.81523 -42.29407,11.59559 15.20297,-9.11354 26.88112,-23.54478 32.3783,-40.74164 -14.23022,8.4405 -29.98954,14.56762 -46.76466,17.8699 -13.43159,-14.31279 -32.57035,-23.25403 -53.75147,-23.25403 -40.66805,0 -73.6422,32.97055 -73.6422,73.63862 0,5.77177 0.65147,11.39281 1.90777,16.7823 -61.20311,-3.07073 -115.46426,-32.38907 -151.78556,-76.94267 -6.33889,10.87592 -9.97138,23.52501 -9.97138,37.02123 0,25.54943 13.00086,48.08915 32.76057,61.2946 -12.07119,-0.38227 -23.42629,-3.6953 -33.35462,-9.21042 -0.008,0.30688 -0.008,0.61556 -0.008,0.92605 0,35.67879 25.38434,65.44041 59.07277,72.21005 -6.17918,1.68343 -12.68499,2.58257 -19.4008,2.58257 -4.74519,0 -9.35757,-0.46303 -13.85512,-1.3209 9.37195,29.25552 36.56716,50.54612 68.79291,51.13836 -25.20306,19.75256 -56.95502,31.52585 -91.45826,31.52585 -5.94408,0 -11.80558,-0.34998 -17.5666,-1.03019 32.59009,20.89579 71.29832,33.08723 112.88526,33.08723 135.45192,0 209.52485,-112.21044 209.52485,-209.52664 0,-3.19278 -0.0718,-6.36762 -0.21356,-9.52809 14.38635,-10.3806 26.87034,-23.34916 36.74304,-38.11777 z" />
      <path
         inkscape:connector-curvature="0"
         id="path3351"
         d="M 782.32053,285.68573 A 249.99999,249.99999 0 0 1 532.32052,535.68572 249.99999,249.99999 0 0 1 282.32053,285.68573 249.99999,249.99999 0 0 1 532.32052,35.685727 249.99999,249.99999 0 0 1 782.32053,285.68573 Z"
         style="opacity:0.25;fill:#0000ff;fill-opacity:1;fill-rule:nonzero;stroke:none" />
      <path
         style="opacity:0.25;fill:#0000ff;fill-opacity:1;fill-rule:nonzero;stroke:none"
         d="M 741.7283,285.68573 A 209.40777,209.40777 0 0 1 532.32053,495.0935 209.40777,209.40777 0 0 1 322.91276,285.68573 209.40777,209.40777 0 0 1 532.32053,76.277949 209.40777,209.40777 0 0 1 741.7283,285.68573 Z"
         id="path3353"
         inkscape:connector-curvature="0" />
    </g>
    <g
       id="g3375"
       transform="translate(-746.70476,379.00923)">
      <path
         style="fill:#2aa9e0"
         inkscape:connector-curvature="0"
         id="path3367"
         d="m 778.37588,237.921 c -13.20547,5.8579 -27.39979,9.81523 -42.29407,11.59559 15.20297,-9.11354 26.88112,-23.54478 32.3783,-40.74164 -14.23022,8.4405 -29.98954,14.56762 -46.76466,17.8699 -13.43159,-14.31279 -32.57035,-23.25403 -53.75147,-23.25403 -40.66805,0 -73.6422,32.97055 -73.6422,73.63862 0,5.77177 0.65147,11.39281 1.90777,16.7823 -61.20311,-3.07073 -115.46426,-32.38907 -151.78556,-76.94267 -6.33889,10.87592 -9.97138,23.52501 -9.97138,37.02123 0,25.54943 13.00086,48.08915 32.76057,61.2946 -12.07119,-0.38227 -23.42629,-3.6953 -33.35462,-9.21042 -0.008,0.30688 -0.008,0.61556 -0.008,0.92605 0,35.67879 25.38434,65.44041 59.07277,72.21005 -6.17918,1.68343 -12.68499,2.58257 -19.4008,2.58257 -4.74519,0 -9.35757,-0.46303 -13.85512,-1.3209 9.37195,29.25552 36.56716,50.54612 68.79291,51.13836 -25.20306,19.75256 -56.95502,31.52585 -91.45826,31.52585 -5.94408,0 -11.80558,-0.34998 -17.5666,-1.03019 32.59009,20.89579 71.29832,33.08723 112.88526,33.08723 135.45192,0 209.52485,-112.21044 209.52485,-209.52664 0,-3.19278 -0.0718,-6.36762 -0.21356,-9.52809 14.38635,-10.3806 26.87034,-23.34916 36.74304,-38.11777 z" />
      <path
         style="opacity:0.25;fill:#0000ff;fill-opacity:1;fill-rule:nonzero;stroke:none"
         d="m 741.57858,277.02542 a 73.634595,73.634595 0 0 1 -73.6346,73.63459 73.634595,73.634595 0 0 1 -73.6346,-73.63459 73.634595,73.634595 0 0 1 73.6346,-73.6346 73.634595,73.634595 0 0 1 73.6346,73.6346 z"
         id="path3369"
         inkscape:connector-curvature="0" />
      <path
         inkscape:connector-curvature="0"
         id="path3371"
         d="m 741.57858,277.02542 c 0,40.66726 -32.96734,73.63459 -73.6346,73.63459 l 0,-73.63459 z"
         style="opacity:0.25;fill:#0000ff;fill-opacity:1;fill-rule:nonzero;stroke:none"
         sodipodi:nodetypes="cccc" />
      <path
         style="opacity:0.25;fill:#0000ff;fill-opacity:1;fill-rule:nonzero;stroke:none"
         d="M 419.43546,462.00627 768.46011,208.77495 444.42399,216.86907 Z"
         id="path3373"
         inkscape:connector-curvature="0"
         sodipodi:nodetypes="cccc" />
    </g>
  </g>
  <g
     inkscape:groupmode="layer"
     id="layer2"
     inkscape:label="guias" />
</svg>
