<?xml version="1.0" encoding="UTF-8" standalone="no"?>
<!-- Created with Inkscape (http://www.inkscape.org/) -->

<svg
   xmlns:dc="http://purl.org/dc/elements/1.1/"
   xmlns:cc="http://creativecommons.org/ns#"
   xmlns:rdf="http://www.w3.org/1999/02/22-rdf-syntax-ns#"
   xmlns:svg="http://www.w3.org/2000/svg"
   xmlns="http://www.w3.org/2000/svg"
   xmlns:sodipodi="http://sodipodi.sourceforge.net/DTD/sodipodi-0.dtd"
   xmlns:inkscape="http://www.inkscape.org/namespaces/inkscape"
   id="svg2"
   version="1.1"
   inkscape:version="0.91 r13725"
   xml:space="preserve"
   width="500"
   height="500"
   viewBox="0 0 500 500"
   sodipodi:docname="youtube.svg"
   inkscape:export-filename="/home/chrono/WWW/inicio/images/youtube.png"
   inkscape:export-xdpi="90"
   inkscape:export-ydpi="90"><metadata
     id="metadata8"><rdf:RDF><cc:Work
         rdf:about=""><dc:format>image/svg+xml</dc:format><dc:type
           rdf:resource="http://purl.org/dc/dcmitype/StillImage" /><dc:title></dc:title></cc:Work></rdf:RDF></metadata><defs
     id="defs6"><clipPath
       clipPathUnits="userSpaceOnUse"
       id="clipPath24"><path
         d="m 0,0 0,7184 10214,0 L 10214,0 0,0 Z"
         id="path26"
         inkscape:connector-curvature="0" /></clipPath><clipPath
       clipPathUnits="userSpaceOnUse"
       id="clipPath30"><path
         d="m 4052.72,2267.19 -0.47,2870 2760,-1440 -2759.53,-1430 z m 6059.78,3367.19 c 0,0 -99.8,703.89 -406.08,1013.86 -388.42,406.83 -823.8,408.85 -1023.46,432.67 -1429.37,103.32 -3573.5,103.32 -3573.5,103.32 l -4.44,0 c 0,0 -2144.08,0 -3573.5,-103.32 C 1331.85,7057.09 896.625,7055.07 508.066,6648.24 201.813,6338.27 102.152,5634.38 102.152,5634.38 102.152,5634.38 0,4807.78 0,3981.19 l 0,-774.93 c 0,-826.58 102.152,-1653.17 102.152,-1653.17 0,0 99.661,-703.899 405.914,-1013.871 C 896.625,132.379 1407.03,145.25 1634.36,102.609 2451.53,24.25 5107.25,0 5107.25,0 c 0,0 2146.34,3.23047 3575.71,106.551 199.66,23.82 635.04,25.828 1023.46,432.668 306.28,309.972 406.08,1013.871 406.08,1013.871 0,0 102,826.59 102,1653.17 l 0,774.93 c 0,826.59 -102,1653.19 -102,1653.19 z"
         id="path32"
         inkscape:connector-curvature="0" /></clipPath><linearGradient
       x1="0"
       y1="0"
       x2="1"
       y2="0"
       gradientUnits="userSpaceOnUse"
       gradientTransform="matrix(-3.14e-5,-718.423,-718.423,3.14e-5,510.724,718.423)"
       spreadMethod="pad"
       id="linearGradient34"><stop
         style="stop-opacity:1;stop-color:#e62426"
         offset="0"
         id="stop36" /><stop
         style="stop-opacity:1;stop-color:#c01e25"
         offset="1"
         id="stop38" /></linearGradient></defs><sodipodi:namedview
     pagecolor="#ffffff"
     bordercolor="#666666"
     borderopacity="1"
     objecttolerance="10"
     gridtolerance="10"
     guidetolerance="10"
     inkscape:pageopacity="0"
     inkscape:pageshadow="2"
     inkscape:window-width="1440"
     inkscape:window-height="834"
     id="namedview4"
     showgrid="false"
     inkscape:zoom="1.248"
     inkscape:cx="250"
     inkscape:cy="250"
     inkscape:window-x="-2"
     inkscape:window-y="-3"
     inkscape:window-maximized="1"
     inkscape:current-layer="g10"
     inkscape:snap-bbox="true"
     inkscape:bbox-paths="true"
     inkscape:snap-page="true"
     inkscape:bbox-nodes="true" /><g
     id="g10"
     inkscape:groupmode="layer"
     inkscape:label="ink_ext_XXXXXX"
     transform="matrix(1.25,0,0,-1.25,0,499.99998)"><g
       id="g4142"
       transform="matrix(0.39142264,0,0,0.39142264,0.07389818,59.429149)"><path
         d="m 405.225,226.719 276,143 -276,144 0,-287"
         style="fill:#ffffff;fill-opacity:1;fill-rule:nonzero;stroke:none"
         id="path14"
         inkscape:connector-curvature="0" /><path
         inkscape:connector-curvature="0"
         id="path40"
         d="M 500.9,0 C 387.2594,1.9927311 271.95788,2.3245446 164.1,10.1 134.52211,13.722113 105.19008,17.590076 83.8,29.4 58.975727,41.975727 40.546752,60.946752 29.4,87.2 16.502605,116.93594 8.7929222,151.85959 6.4,192.1 c -7.6597341,73.87924 -6.98753621,157.72723 -6,238.9 2.1049593,49.69504 4.6987997,98.9012 11.7,143.7 8.723588,40.67641 21.212717,77.58728 48.6,99.6 21.94608,19.52059 51.55679,31.37655 90.7,33.7 140.86226,9.33726 291.43433,11.30671 441.2,9.8 97.4942,-1.57247 194.99017,-3.14316 286.4,-10.8 46.82395,-4.00939 77.96143,-23.70524 100.2,-52.3 16.97104,-25.26229 26.7163,-57.7504 32.5,-94.2 7.9966,-69.34402 11.0986,-143.58272 9.7,-222.32201 C 1021.7846,271.00073 1018.0564,207.93629 1010.2,149 1002.9624,112.10431 992.58016,78.353178 971.8,55 948.59068,30.109319 917.15666,13.443335 871.5,11 752.92472,2.4254117 627.30197,0.6807616 500.9,0 Z m -95.6,226.9 c 67.74863,34.91803 135.86676,70.33325 203.7,105.5 23.83838,12.42825 48.68371,24.91633 71.8,37.4 -81.66952,42.79715 -163.61619,85.31714 -245.3,128.1 -10.13628,5.16372 -20.11609,10.48391 -30.2,15.7 0,-95.56667 0,-191.13333 0,-286.7 z"
         style="fill:#e62426;fill-opacity:1;fill-rule:nonzero;stroke:none" /></g></g></svg>